# AEONFALL original source. Coordinates: centimeters, X east / Y north / Z up.
# GLB alternative uses glTF meter units. Do not multiply this OBJ by 100.
mtllib SM_AEON_Wall_4m.mtl
o SM_AEON_Wall_4m
v -200.000000 -30.000000 0.000000
v -200.000000 30.000000 0.000000
v 200.000000 30.000000 0.000000
v 200.000000 -30.000000 0.000000
v -200.000000 -30.000000 600.000000
v 200.000000 -30.000000 600.000000
v 200.000000 30.000000 600.000000
v -200.000000 30.000000 600.000000
v -200.000000 -30.000000 0.000000
v 200.000000 -30.000000 0.000000
v 200.000000 -30.000000 600.000000
v -200.000000 -30.000000 600.000000
v 200.000000 -30.000000 0.000000
v 200.000000 30.000000 0.000000
v 200.000000 30.000000 600.000000
v 200.000000 -30.000000 600.000000
v 200.000000 30.000000 0.000000
v -200.000000 30.000000 0.000000
v -200.000000 30.000000 600.000000
v 200.000000 30.000000 600.000000
v -200.000000 30.000000 0.000000
v -200.000000 -30.000000 0.000000
v -200.000000 -30.000000 600.000000
v -200.000000 30.000000 600.000000
v -205.000000 -42.500000 0.000000
v -205.000000 42.500000 0.000000
v 205.000000 42.500000 0.000000
v 205.000000 -42.500000 0.000000
v -205.000000 -42.500000 50.000000
v 205.000000 -42.500000 50.000000
v 205.000000 42.500000 50.000000
v -205.000000 42.500000 50.000000
v -205.000000 -42.500000 0.000000
v 205.000000 -42.500000 0.000000
v 205.000000 -42.500000 50.000000
v -205.000000 -42.500000 50.000000
v 205.000000 -42.500000 0.000000
v 205.000000 42.500000 0.000000
v 205.000000 42.500000 50.000000
v 205.000000 -42.500000 50.000000
v 205.000000 42.500000 0.000000
v -205.000000 42.500000 0.000000
v -205.000000 42.500000 50.000000
v 205.000000 42.500000 50.000000
v -205.000000 42.500000 0.000000
v -205.000000 -42.500000 0.000000
v -205.000000 -42.500000 50.000000
v -205.000000 42.500000 50.000000
v -210.000000 -47.500000 590.000000
v -210.000000 47.500000 590.000000
v 210.000000 47.500000 590.000000
v 210.000000 -47.500000 590.000000
v -210.000000 -47.500000 630.000000
v 210.000000 -47.500000 630.000000
v 210.000000 47.500000 630.000000
v -210.000000 47.500000 630.000000
v -210.000000 -47.500000 590.000000
v 210.000000 -47.500000 590.000000
v 210.000000 -47.500000 630.000000
v -210.000000 -47.500000 630.000000
v 210.000000 -47.500000 590.000000
v 210.000000 47.500000 590.000000
v 210.000000 47.500000 630.000000
v 210.000000 -47.500000 630.000000
v 210.000000 47.500000 590.000000
v -210.000000 47.500000 590.000000
v -210.000000 47.500000 630.000000
v 210.000000 47.500000 630.000000
v -210.000000 47.500000 590.000000
v -210.000000 -47.500000 590.000000
v -210.000000 -47.500000 630.000000
v -210.000000 47.500000 630.000000
v -7.500000 -38.000000 75.000000
v -7.500000 -28.000000 75.000000
v 7.500000 -28.000000 75.000000
v 7.500000 -38.000000 75.000000
v -7.500000 -38.000000 525.000000
v 7.500000 -38.000000 525.000000
v 7.500000 -28.000000 525.000000
v -7.500000 -28.000000 525.000000
v -7.500000 -38.000000 75.000000
v 7.500000 -38.000000 75.000000
v 7.500000 -38.000000 525.000000
v -7.500000 -38.000000 525.000000
v 7.500000 -38.000000 75.000000
v 7.500000 -28.000000 75.000000
v 7.500000 -28.000000 525.000000
v 7.500000 -38.000000 525.000000
v 7.500000 -28.000000 75.000000
v -7.500000 -28.000000 75.000000
v -7.500000 -28.000000 525.000000
v 7.500000 -28.000000 525.000000
v -7.500000 -28.000000 75.000000
v -7.500000 -38.000000 75.000000
v -7.500000 -38.000000 525.000000
v -7.500000 -28.000000 525.000000
vt -2.000000 -0.300000
vt -2.000000 0.300000
vt 2.000000 0.300000
vt 2.000000 -0.300000
vt -2.000000 -0.300000
vt 2.000000 -0.300000
vt 2.000000 0.300000
vt -2.000000 0.300000
vt -2.000000 0.000000
vt 2.000000 0.000000
vt 2.000000 6.000000
vt -2.000000 6.000000
vt -0.300000 0.000000
vt 0.300000 0.000000
vt 0.300000 6.000000
vt -0.300000 6.000000
vt 2.000000 0.000000
vt -2.000000 0.000000
vt -2.000000 6.000000
vt 2.000000 6.000000
vt 0.300000 0.000000
vt -0.300000 0.000000
vt -0.300000 6.000000
vt 0.300000 6.000000
vt -2.050000 -0.425000
vt -2.050000 0.425000
vt 2.050000 0.425000
vt 2.050000 -0.425000
vt -2.050000 -0.425000
vt 2.050000 -0.425000
vt 2.050000 0.425000
vt -2.050000 0.425000
vt -2.050000 0.000000
vt 2.050000 0.000000
vt 2.050000 0.500000
vt -2.050000 0.500000
vt -0.425000 0.000000
vt 0.425000 0.000000
vt 0.425000 0.500000
vt -0.425000 0.500000
vt 2.050000 0.000000
vt -2.050000 0.000000
vt -2.050000 0.500000
vt 2.050000 0.500000
vt 0.425000 0.000000
vt -0.425000 0.000000
vt -0.425000 0.500000
vt 0.425000 0.500000
vt -2.100000 -0.475000
vt -2.100000 0.475000
vt 2.100000 0.475000
vt 2.100000 -0.475000
vt -2.100000 -0.475000
vt 2.100000 -0.475000
vt 2.100000 0.475000
vt -2.100000 0.475000
vt -2.100000 5.900000
vt 2.100000 5.900000
vt 2.100000 6.300000
vt -2.100000 6.300000
vt -0.475000 5.900000
vt 0.475000 5.900000
vt 0.475000 6.300000
vt -0.475000 6.300000
vt 2.100000 5.900000
vt -2.100000 5.900000
vt -2.100000 6.300000
vt 2.100000 6.300000
vt 0.475000 5.900000
vt -0.475000 5.900000
vt -0.475000 6.300000
vt 0.475000 6.300000
vt -0.075000 -0.380000
vt -0.075000 -0.280000
vt 0.075000 -0.280000
vt 0.075000 -0.380000
vt -0.075000 -0.380000
vt 0.075000 -0.380000
vt 0.075000 -0.280000
vt -0.075000 -0.280000
vt -0.075000 0.750000
vt 0.075000 0.750000
vt 0.075000 5.250000
vt -0.075000 5.250000
vt -0.380000 0.750000
vt -0.280000 0.750000
vt -0.280000 5.250000
vt -0.380000 5.250000
vt 0.075000 0.750000
vt -0.075000 0.750000
vt -0.075000 5.250000
vt 0.075000 5.250000
vt -0.280000 0.750000
vt -0.380000 0.750000
vt -0.380000 5.250000
vt -0.280000 5.250000
vn 0.0000000 0.0000000 -1.0000000
vn 0.0000000 0.0000000 -1.0000000
vn 0.0000000 0.0000000 -1.0000000
vn 0.0000000 0.0000000 -1.0000000
vn 0.0000000 0.0000000 1.0000000
vn 0.0000000 0.0000000 1.0000000
vn 0.0000000 0.0000000 1.0000000
vn 0.0000000 0.0000000 1.0000000
vn 0.0000000 -1.0000000 0.0000000
vn 0.0000000 -1.0000000 0.0000000
vn 0.0000000 -1.0000000 0.0000000
vn 0.0000000 -1.0000000 0.0000000
vn 1.0000000 0.0000000 0.0000000
vn 1.0000000 0.0000000 0.0000000
vn 1.0000000 0.0000000 0.0000000
vn 1.0000000 0.0000000 0.0000000
vn 0.0000000 1.0000000 0.0000000
vn 0.0000000 1.0000000 0.0000000
vn 0.0000000 1.0000000 0.0000000
vn 0.0000000 1.0000000 0.0000000
vn -1.0000000 0.0000000 0.0000000
vn -1.0000000 0.0000000 0.0000000
vn -1.0000000 0.0000000 0.0000000
vn -1.0000000 0.0000000 0.0000000
vn 0.0000000 0.0000000 -1.0000000
vn 0.0000000 0.0000000 -1.0000000
vn 0.0000000 0.0000000 -1.0000000
vn 0.0000000 0.0000000 -1.0000000
vn 0.0000000 0.0000000 1.0000000
vn 0.0000000 0.0000000 1.0000000
vn 0.0000000 0.0000000 1.0000000
vn 0.0000000 0.0000000 1.0000000
vn 0.0000000 -1.0000000 0.0000000
vn 0.0000000 -1.0000000 0.0000000
vn 0.0000000 -1.0000000 0.0000000
vn 0.0000000 -1.0000000 0.0000000
vn 1.0000000 0.0000000 0.0000000
vn 1.0000000 0.0000000 0.0000000
vn 1.0000000 0.0000000 0.0000000
vn 1.0000000 0.0000000 0.0000000
vn 0.0000000 1.0000000 0.0000000
vn 0.0000000 1.0000000 0.0000000
vn 0.0000000 1.0000000 0.0000000
vn 0.0000000 1.0000000 0.0000000
vn -1.0000000 0.0000000 0.0000000
vn -1.0000000 0.0000000 0.0000000
vn -1.0000000 0.0000000 0.0000000
vn -1.0000000 0.0000000 0.0000000
vn 0.0000000 0.0000000 -1.0000000
vn 0.0000000 0.0000000 -1.0000000
vn 0.0000000 0.0000000 -1.0000000
vn 0.0000000 0.0000000 -1.0000000
vn 0.0000000 0.0000000 1.0000000
vn 0.0000000 0.0000000 1.0000000
vn 0.0000000 0.0000000 1.0000000
vn 0.0000000 0.0000000 1.0000000
vn 0.0000000 -1.0000000 0.0000000
vn 0.0000000 -1.0000000 0.0000000
vn 0.0000000 -1.0000000 0.0000000
vn 0.0000000 -1.0000000 0.0000000
vn 1.0000000 0.0000000 0.0000000
vn 1.0000000 0.0000000 0.0000000
vn 1.0000000 0.0000000 0.0000000
vn 1.0000000 0.0000000 0.0000000
vn 0.0000000 1.0000000 0.0000000
vn 0.0000000 1.0000000 0.0000000
vn 0.0000000 1.0000000 0.0000000
vn 0.0000000 1.0000000 0.0000000
vn -1.0000000 0.0000000 0.0000000
vn -1.0000000 0.0000000 0.0000000
vn -1.0000000 0.0000000 0.0000000
vn -1.0000000 0.0000000 0.0000000
vn 0.0000000 0.0000000 -1.0000000
vn 0.0000000 0.0000000 -1.0000000
vn 0.0000000 0.0000000 -1.0000000
vn 0.0000000 0.0000000 -1.0000000
vn 0.0000000 0.0000000 1.0000000
vn 0.0000000 0.0000000 1.0000000
vn 0.0000000 0.0000000 1.0000000
vn 0.0000000 0.0000000 1.0000000
vn 0.0000000 -1.0000000 0.0000000
vn 0.0000000 -1.0000000 0.0000000
vn 0.0000000 -1.0000000 0.0000000
vn 0.0000000 -1.0000000 0.0000000
vn 1.0000000 0.0000000 0.0000000
vn 1.0000000 0.0000000 0.0000000
vn 1.0000000 0.0000000 0.0000000
vn 1.0000000 0.0000000 0.0000000
vn 0.0000000 1.0000000 0.0000000
vn 0.0000000 1.0000000 0.0000000
vn 0.0000000 1.0000000 0.0000000
vn 0.0000000 1.0000000 0.0000000
vn -1.0000000 0.0000000 0.0000000
vn -1.0000000 0.0000000 0.0000000
vn -1.0000000 0.0000000 0.0000000
vn -1.0000000 0.0000000 0.0000000
s off
usemtl GraveBasalt
f 1/1/1 2/2/2 3/3/3
f 1/1/1 3/3/3 4/4/4
f 5/5/5 6/6/6 7/7/7
f 5/5/5 7/7/7 8/8/8
f 9/9/9 10/10/10 11/11/11
f 9/9/9 11/11/11 12/12/12
f 13/13/13 14/14/14 15/15/15
f 13/13/13 15/15/15 16/16/16
f 17/17/17 18/18/18 19/19/19
f 17/17/17 19/19/19 20/20/20
f 21/21/21 22/22/22 23/23/23
f 21/21/21 23/23/23 24/24/24
usemtl OssuaryLimestone
f 25/25/25 26/26/26 27/27/27
f 25/25/25 27/27/27 28/28/28
f 29/29/29 30/30/30 31/31/31
f 29/29/29 31/31/31 32/32/32
f 33/33/33 34/34/34 35/35/35
f 33/33/33 35/35/35 36/36/36
f 37/37/37 38/38/38 39/39/39
f 37/37/37 39/39/39 40/40/40
f 41/41/41 42/42/42 43/43/43
f 41/41/41 43/43/43 44/44/44
f 45/45/45 46/46/46 47/47/47
f 45/45/45 47/47/47 48/48/48
f 49/49/49 50/50/50 51/51/51
f 49/49/49 51/51/51 52/52/52
f 53/53/53 54/54/54 55/55/55
f 53/53/53 55/55/55 56/56/56
f 57/57/57 58/58/58 59/59/59
f 57/57/57 59/59/59 60/60/60
f 61/61/61 62/62/62 63/63/63
f 61/61/61 63/63/63 64/64/64
f 65/65/65 66/66/66 67/67/67
f 65/65/65 67/67/67 68/68/68
f 69/69/69 70/70/70 71/71/71
f 69/69/69 71/71/71 72/72/72
usemtl LedgerCopper
f 73/73/73 74/74/74 75/75/75
f 73/73/73 75/75/75 76/76/76
f 77/77/77 78/78/78 79/79/79
f 77/77/77 79/79/79 80/80/80
f 81/81/81 82/82/82 83/83/83
f 81/81/81 83/83/83 84/84/84
f 85/85/85 86/86/86 87/87/87
f 85/85/85 87/87/87 88/88/88
f 89/89/89 90/90/90 91/91/91
f 89/89/89 91/91/91 92/92/92
f 93/93/93 94/94/94 95/95/95
f 93/93/93 95/95/95 96/96/96
