# AEONFALL original source. Coordinates: centimeters, X east / Y north / Z up.
# GLB alternative uses glTF meter units. Do not multiply this OBJ by 100.
mtllib SM_AEON_GraveObelisk.mtl
o SM_AEON_GraveObelisk
v -70.000000 -70.000000 0.000000
v -70.000000 70.000000 0.000000
v 70.000000 70.000000 0.000000
v 70.000000 -70.000000 0.000000
v -70.000000 -70.000000 30.000000
v 70.000000 -70.000000 30.000000
v 70.000000 70.000000 30.000000
v -70.000000 70.000000 30.000000
v -70.000000 -70.000000 0.000000
v 70.000000 -70.000000 0.000000
v 70.000000 -70.000000 30.000000
v -70.000000 -70.000000 30.000000
v 70.000000 -70.000000 0.000000
v 70.000000 70.000000 0.000000
v 70.000000 70.000000 30.000000
v 70.000000 -70.000000 30.000000
v 70.000000 70.000000 0.000000
v -70.000000 70.000000 0.000000
v -70.000000 70.000000 30.000000
v 70.000000 70.000000 30.000000
v -70.000000 70.000000 0.000000
v -70.000000 -70.000000 0.000000
v -70.000000 -70.000000 30.000000
v -70.000000 70.000000 30.000000
v 19.899538 -48.041736 30.000000
v -48.041736 -19.899538 30.000000
v -19.899538 48.041736 30.000000
v 48.041736 19.899538 30.000000
v 33.259663 13.776604 270.000000
v -13.776604 33.259663 270.000000
v -33.259663 -13.776604 270.000000
v 13.776604 -33.259663 270.000000
v 48.041736 19.899538 30.000000
v -19.899538 48.041736 30.000000
v -13.776604 33.259663 270.000000
v 33.259663 13.776604 270.000000
v -19.899538 48.041736 30.000000
v -48.041736 -19.899538 30.000000
v -33.259663 -13.776604 270.000000
v -13.776604 33.259663 270.000000
v -48.041736 -19.899538 30.000000
v 19.899538 -48.041736 30.000000
v 13.776604 -33.259663 270.000000
v -33.259663 -13.776604 270.000000
v 19.899538 -48.041736 30.000000
v 48.041736 19.899538 30.000000
v 33.259663 13.776604 270.000000
v 13.776604 -33.259663 270.000000
v 13.776604 -33.259663 270.000000
v -33.259663 -13.776604 270.000000
v -13.776604 33.259663 270.000000
v 33.259663 13.776604 270.000000
v 1.847759 0.765367 350.000000
v -0.765367 1.847759 350.000000
v -1.847759 -0.765367 350.000000
v 0.765367 -1.847759 350.000000
v 33.259663 13.776604 270.000000
v -13.776604 33.259663 270.000000
v -0.765367 1.847759 350.000000
v 1.847759 0.765367 350.000000
v -13.776604 33.259663 270.000000
v -33.259663 -13.776604 270.000000
v -1.847759 -0.765367 350.000000
v -0.765367 1.847759 350.000000
v -33.259663 -13.776604 270.000000
v 13.776604 -33.259663 270.000000
v 0.765367 -1.847759 350.000000
v -1.847759 -0.765367 350.000000
v 13.776604 -33.259663 270.000000
v 33.259663 13.776604 270.000000
v 1.847759 0.765367 350.000000
v 0.765367 -1.847759 350.000000
v -5.000000 -37.000000 70.000000
v -5.000000 -29.000000 70.000000
v 5.000000 -29.000000 70.000000
v 5.000000 -37.000000 70.000000
v -5.000000 -37.000000 230.000000
v 5.000000 -37.000000 230.000000
v 5.000000 -29.000000 230.000000
v -5.000000 -29.000000 230.000000
v -5.000000 -37.000000 70.000000
v 5.000000 -37.000000 70.000000
v 5.000000 -37.000000 230.000000
v -5.000000 -37.000000 230.000000
v 5.000000 -37.000000 70.000000
v 5.000000 -29.000000 70.000000
v 5.000000 -29.000000 230.000000
v 5.000000 -37.000000 230.000000
v 5.000000 -29.000000 70.000000
v -5.000000 -29.000000 70.000000
v -5.000000 -29.000000 230.000000
v 5.000000 -29.000000 230.000000
v -5.000000 -29.000000 70.000000
v -5.000000 -37.000000 70.000000
v -5.000000 -37.000000 230.000000
v -5.000000 -29.000000 230.000000
vt -0.700000 -0.700000
vt -0.700000 0.700000
vt 0.700000 0.700000
vt 0.700000 -0.700000
vt -0.700000 -0.700000
vt 0.700000 -0.700000
vt 0.700000 0.700000
vt -0.700000 0.700000
vt -0.700000 0.000000
vt 0.700000 0.000000
vt 0.700000 0.300000
vt -0.700000 0.300000
vt -0.700000 0.000000
vt 0.700000 0.000000
vt 0.700000 0.300000
vt -0.700000 0.300000
vt 0.700000 0.000000
vt -0.700000 0.000000
vt -0.700000 0.300000
vt 0.700000 0.300000
vt 0.700000 0.000000
vt -0.700000 0.000000
vt -0.700000 0.300000
vt 0.700000 0.300000
vt 0.198995 -0.480417
vt -0.480417 -0.198995
vt -0.198995 0.480417
vt 0.480417 0.198995
vt 0.332597 0.137766
vt -0.137766 0.332597
vt -0.332597 -0.137766
vt 0.137766 -0.332597
vt 0.480417 0.300000
vt -0.198995 0.300000
vt -0.137766 2.700000
vt 0.332597 2.700000
vt 0.480417 0.300000
vt -0.198995 0.300000
vt -0.137766 2.700000
vt 0.332597 2.700000
vt -0.480417 0.300000
vt 0.198995 0.300000
vt 0.137766 2.700000
vt -0.332597 2.700000
vt -0.480417 0.300000
vt 0.198995 0.300000
vt 0.137766 2.700000
vt -0.332597 2.700000
vt 0.137766 -0.332597
vt -0.332597 -0.137766
vt -0.137766 0.332597
vt 0.332597 0.137766
vt 0.018478 0.007654
vt -0.007654 0.018478
vt -0.018478 -0.007654
vt 0.007654 -0.018478
vt 0.332597 2.700000
vt -0.137766 2.700000
vt -0.007654 3.500000
vt 0.018478 3.500000
vt 0.332597 2.700000
vt -0.137766 2.700000
vt -0.007654 3.500000
vt 0.018478 3.500000
vt -0.332597 2.700000
vt 0.137766 2.700000
vt 0.007654 3.500000
vt -0.018478 3.500000
vt -0.332597 2.700000
vt 0.137766 2.700000
vt 0.007654 3.500000
vt -0.018478 3.500000
vt -0.050000 -0.370000
vt -0.050000 -0.290000
vt 0.050000 -0.290000
vt 0.050000 -0.370000
vt -0.050000 -0.370000
vt 0.050000 -0.370000
vt 0.050000 -0.290000
vt -0.050000 -0.290000
vt -0.050000 0.700000
vt 0.050000 0.700000
vt 0.050000 2.300000
vt -0.050000 2.300000
vt -0.370000 0.700000
vt -0.290000 0.700000
vt -0.290000 2.300000
vt -0.370000 2.300000
vt 0.050000 0.700000
vt -0.050000 0.700000
vt -0.050000 2.300000
vt 0.050000 2.300000
vt -0.290000 0.700000
vt -0.370000 0.700000
vt -0.370000 2.300000
vt -0.290000 2.300000
vn 0.0000000 0.0000000 -1.0000000
vn 0.0000000 0.0000000 -1.0000000
vn 0.0000000 0.0000000 -1.0000000
vn 0.0000000 0.0000000 -1.0000000
vn 0.0000000 0.0000000 1.0000000
vn 0.0000000 0.0000000 1.0000000
vn 0.0000000 0.0000000 1.0000000
vn 0.0000000 0.0000000 1.0000000
vn 0.0000000 -1.0000000 0.0000000
vn 0.0000000 -1.0000000 0.0000000
vn 0.0000000 -1.0000000 0.0000000
vn 0.0000000 -1.0000000 0.0000000
vn 1.0000000 0.0000000 0.0000000
vn 1.0000000 0.0000000 0.0000000
vn 1.0000000 0.0000000 0.0000000
vn 1.0000000 0.0000000 0.0000000
vn 0.0000000 1.0000000 0.0000000
vn 0.0000000 1.0000000 0.0000000
vn 0.0000000 1.0000000 0.0000000
vn 0.0000000 1.0000000 0.0000000
vn -1.0000000 0.0000000 0.0000000
vn -1.0000000 0.0000000 0.0000000
vn -1.0000000 0.0000000 0.0000000
vn -1.0000000 0.0000000 0.0000000
vn 0.0000000 0.0000000 -1.0000000
vn 0.0000000 0.0000000 -1.0000000
vn 0.0000000 0.0000000 -1.0000000
vn 0.0000000 0.0000000 -1.0000000
vn 0.0000000 0.0000000 1.0000000
vn 0.0000000 0.0000000 1.0000000
vn 0.0000000 0.0000000 1.0000000
vn 0.0000000 0.0000000 1.0000000
vn 0.3822589 0.9228547 0.0470882
vn 0.3822589 0.9228547 0.0470882
vn 0.3822589 0.9228547 0.0470882
vn 0.3822589 0.9228547 0.0470882
vn -0.9228547 0.3822589 0.0470882
vn -0.9228547 0.3822589 0.0470882
vn -0.9228547 0.3822589 0.0470882
vn -0.9228547 0.3822589 0.0470882
vn -0.3822589 -0.9228547 0.0470882
vn -0.3822589 -0.9228547 0.0470882
vn -0.3822589 -0.9228547 0.0470882
vn -0.3822589 -0.9228547 0.0470882
vn 0.9228547 -0.3822589 0.0470882
vn 0.9228547 -0.3822589 0.0470882
vn 0.9228547 -0.3822589 0.0470882
vn 0.9228547 -0.3822589 0.0470882
vn 0.0000000 0.0000000 -1.0000000
vn 0.0000000 0.0000000 -1.0000000
vn 0.0000000 0.0000000 -1.0000000
vn 0.0000000 0.0000000 -1.0000000
vn 0.0000000 0.0000000 1.0000000
vn 0.0000000 0.0000000 1.0000000
vn 0.0000000 0.0000000 1.0000000
vn 0.0000000 0.0000000 1.0000000
vn 0.3664917 0.8847893 0.2878051
vn 0.3664917 0.8847893 0.2878051
vn 0.3664917 0.8847893 0.2878051
vn 0.3664917 0.8847893 0.2878051
vn -0.8847893 0.3664917 0.2878051
vn -0.8847893 0.3664917 0.2878051
vn -0.8847893 0.3664917 0.2878051
vn -0.8847893 0.3664917 0.2878051
vn -0.3664917 -0.8847893 0.2878051
vn -0.3664917 -0.8847893 0.2878051
vn -0.3664917 -0.8847893 0.2878051
vn -0.3664917 -0.8847893 0.2878051
vn 0.8847893 -0.3664917 0.2878051
vn 0.8847893 -0.3664917 0.2878051
vn 0.8847893 -0.3664917 0.2878051
vn 0.8847893 -0.3664917 0.2878051
vn 0.0000000 0.0000000 -1.0000000
vn 0.0000000 0.0000000 -1.0000000
vn 0.0000000 0.0000000 -1.0000000
vn 0.0000000 0.0000000 -1.0000000
vn 0.0000000 0.0000000 1.0000000
vn 0.0000000 0.0000000 1.0000000
vn 0.0000000 0.0000000 1.0000000
vn 0.0000000 0.0000000 1.0000000
vn 0.0000000 -1.0000000 0.0000000
vn 0.0000000 -1.0000000 0.0000000
vn 0.0000000 -1.0000000 0.0000000
vn 0.0000000 -1.0000000 0.0000000
vn 1.0000000 0.0000000 0.0000000
vn 1.0000000 0.0000000 0.0000000
vn 1.0000000 0.0000000 0.0000000
vn 1.0000000 0.0000000 0.0000000
vn 0.0000000 1.0000000 0.0000000
vn 0.0000000 1.0000000 0.0000000
vn 0.0000000 1.0000000 0.0000000
vn 0.0000000 1.0000000 0.0000000
vn -1.0000000 0.0000000 0.0000000
vn -1.0000000 0.0000000 0.0000000
vn -1.0000000 0.0000000 0.0000000
vn -1.0000000 0.0000000 0.0000000
s off
usemtl GraveBasalt
f 25/25/25 26/26/26 27/27/27
f 25/25/25 27/27/27 28/28/28
f 29/29/29 30/30/30 31/31/31
f 29/29/29 31/31/31 32/32/32
f 33/33/33 34/34/34 35/35/35
f 33/33/33 35/35/35 36/36/36
f 37/37/37 38/38/38 39/39/39
f 37/37/37 39/39/39 40/40/40
f 41/41/41 42/42/42 43/43/43
f 41/41/41 43/43/43 44/44/44
f 45/45/45 46/46/46 47/47/47
f 45/45/45 47/47/47 48/48/48
usemtl OssuaryLimestone
f 1/1/1 2/2/2 3/3/3
f 1/1/1 3/3/3 4/4/4
f 5/5/5 6/6/6 7/7/7
f 5/5/5 7/7/7 8/8/8
f 9/9/9 10/10/10 11/11/11
f 9/9/9 11/11/11 12/12/12
f 13/13/13 14/14/14 15/15/15
f 13/13/13 15/15/15 16/16/16
f 17/17/17 18/18/18 19/19/19
f 17/17/17 19/19/19 20/20/20
f 21/21/21 22/22/22 23/23/23
f 21/21/21 23/23/23 24/24/24
f 49/49/49 50/50/50 51/51/51
f 49/49/49 51/51/51 52/52/52
f 53/53/53 54/54/54 55/55/55
f 53/53/53 55/55/55 56/56/56
f 57/57/57 58/58/58 59/59/59
f 57/57/57 59/59/59 60/60/60
f 61/61/61 62/62/62 63/63/63
f 61/61/61 63/63/63 64/64/64
f 65/65/65 66/66/66 67/67/67
f 65/65/65 67/67/67 68/68/68
f 69/69/69 70/70/70 71/71/71
f 69/69/69 71/71/71 72/72/72
usemtl LedgerCopper
f 73/73/73 74/74/74 75/75/75
f 73/73/73 75/75/75 76/76/76
f 77/77/77 78/78/78 79/79/79
f 77/77/77 79/79/79 80/80/80
f 81/81/81 82/82/82 83/83/83
f 81/81/81 83/83/83 84/84/84
f 85/85/85 86/86/86 87/87/87
f 85/85/85 87/87/87 88/88/88
f 89/89/89 90/90/90 91/91/91
f 89/89/89 91/91/91 92/92/92
f 93/93/93 94/94/94 95/95/95
f 93/93/93 95/95/95 96/96/96
