# AEONFALL original source. Coordinates: centimeters, X east / Y north / Z up.
# GLB alternative uses glTF meter units. Do not multiply this OBJ by 100.
mtllib SM_AEON_BlackThrone.mtl
o SM_AEON_BlackThrone
v -300.000000 -250.000000 0.000000
v -300.000000 250.000000 0.000000
v 300.000000 250.000000 0.000000
v 300.000000 -250.000000 0.000000
v -300.000000 -250.000000 40.000000
v 300.000000 -250.000000 40.000000
v 300.000000 250.000000 40.000000
v -300.000000 250.000000 40.000000
v -300.000000 -250.000000 0.000000
v 300.000000 -250.000000 0.000000
v 300.000000 -250.000000 40.000000
v -300.000000 -250.000000 40.000000
v 300.000000 -250.000000 0.000000
v 300.000000 250.000000 0.000000
v 300.000000 250.000000 40.000000
v 300.000000 -250.000000 40.000000
v 300.000000 250.000000 0.000000
v -300.000000 250.000000 0.000000
v -300.000000 250.000000 40.000000
v 300.000000 250.000000 40.000000
v -300.000000 250.000000 0.000000
v -300.000000 -250.000000 0.000000
v -300.000000 -250.000000 40.000000
v -300.000000 250.000000 40.000000
v -160.000000 -110.000000 40.000000
v -160.000000 160.000000 40.000000
v 160.000000 160.000000 40.000000
v 160.000000 -110.000000 40.000000
v -160.000000 -110.000000 100.000000
v 160.000000 -110.000000 100.000000
v 160.000000 160.000000 100.000000
v -160.000000 160.000000 100.000000
v -160.000000 -110.000000 40.000000
v 160.000000 -110.000000 40.000000
v 160.000000 -110.000000 100.000000
v -160.000000 -110.000000 100.000000
v 160.000000 -110.000000 40.000000
v 160.000000 160.000000 40.000000
v 160.000000 160.000000 100.000000
v 160.000000 -110.000000 100.000000
v 160.000000 160.000000 40.000000
v -160.000000 160.000000 40.000000
v -160.000000 160.000000 100.000000
v 160.000000 160.000000 100.000000
v -160.000000 160.000000 40.000000
v -160.000000 -110.000000 40.000000
v -160.000000 -110.000000 100.000000
v -160.000000 160.000000 100.000000
v -135.000000 -90.000000 100.000000
v -135.000000 140.000000 100.000000
v 135.000000 140.000000 100.000000
v 135.000000 -90.000000 100.000000
v -135.000000 -90.000000 140.000000
v 135.000000 -90.000000 140.000000
v 135.000000 140.000000 140.000000
v -135.000000 140.000000 140.000000
v -135.000000 -90.000000 100.000000
v 135.000000 -90.000000 100.000000
v 135.000000 -90.000000 140.000000
v -135.000000 -90.000000 140.000000
v 135.000000 -90.000000 100.000000
v 135.000000 140.000000 100.000000
v 135.000000 140.000000 140.000000
v 135.000000 -90.000000 140.000000
v 135.000000 140.000000 100.000000
v -135.000000 140.000000 100.000000
v -135.000000 140.000000 140.000000
v 135.000000 140.000000 140.000000
v -135.000000 140.000000 100.000000
v -135.000000 -90.000000 100.000000
v -135.000000 -90.000000 140.000000
v -135.000000 140.000000 140.000000
v -120.000000 -80.000000 140.000000
v -120.000000 130.000000 140.000000
v 120.000000 130.000000 140.000000
v 120.000000 -80.000000 140.000000
v -120.000000 -80.000000 170.000000
v 120.000000 -80.000000 170.000000
v 120.000000 130.000000 170.000000
v -120.000000 130.000000 170.000000
v -120.000000 -80.000000 140.000000
v 120.000000 -80.000000 140.000000
v 120.000000 -80.000000 170.000000
v -120.000000 -80.000000 170.000000
v 120.000000 -80.000000 140.000000
v 120.000000 130.000000 140.000000
v 120.000000 130.000000 170.000000
v 120.000000 -80.000000 170.000000
v 120.000000 130.000000 140.000000
v -120.000000 130.000000 140.000000
v -120.000000 130.000000 170.000000
v 120.000000 130.000000 170.000000
v -120.000000 130.000000 140.000000
v -120.000000 -80.000000 140.000000
v -120.000000 -80.000000 170.000000
v -120.000000 130.000000 170.000000
v -125.000000 85.000000 160.000000
v -125.000000 135.000000 160.000000
v 125.000000 135.000000 160.000000
v 125.000000 85.000000 160.000000
v -125.000000 85.000000 460.000000
v 125.000000 85.000000 460.000000
v 125.000000 135.000000 460.000000
v -125.000000 135.000000 460.000000
v -125.000000 85.000000 160.000000
v 125.000000 85.000000 160.000000
v 125.000000 85.000000 460.000000
v -125.000000 85.000000 460.000000
v 125.000000 85.000000 160.000000
v 125.000000 135.000000 160.000000
v 125.000000 135.000000 460.000000
v 125.000000 85.000000 460.000000
v 125.000000 135.000000 160.000000
v -125.000000 135.000000 160.000000
v -125.000000 135.000000 460.000000
v 125.000000 135.000000 460.000000
v -125.000000 135.000000 160.000000
v -125.000000 85.000000 160.000000
v -125.000000 85.000000 460.000000
v -125.000000 135.000000 460.000000
v -167.500000 -140.000000 145.000000
v -167.500000 140.000000 145.000000
v -122.500000 140.000000 145.000000
v -122.500000 -140.000000 145.000000
v -167.500000 -140.000000 185.000000
v -122.500000 -140.000000 185.000000
v -122.500000 140.000000 185.000000
v -167.500000 140.000000 185.000000
v -167.500000 -140.000000 145.000000
v -122.500000 -140.000000 145.000000
v -122.500000 -140.000000 185.000000
v -167.500000 -140.000000 185.000000
v -122.500000 -140.000000 145.000000
v -122.500000 140.000000 145.000000
v -122.500000 140.000000 185.000000
v -122.500000 -140.000000 185.000000
v -122.500000 140.000000 145.000000
v -167.500000 140.000000 145.000000
v -167.500000 140.000000 185.000000
v -122.500000 140.000000 185.000000
v -167.500000 140.000000 145.000000
v -167.500000 -140.000000 145.000000
v -167.500000 -140.000000 185.000000
v -167.500000 140.000000 185.000000
v -165.000000 -120.000000 40.000000
v -165.000000 -80.000000 40.000000
v -125.000000 -80.000000 40.000000
v -125.000000 -120.000000 40.000000
v -165.000000 -120.000000 180.000000
v -125.000000 -120.000000 180.000000
v -125.000000 -80.000000 180.000000
v -165.000000 -80.000000 180.000000
v -165.000000 -120.000000 40.000000
v -125.000000 -120.000000 40.000000
v -125.000000 -120.000000 180.000000
v -165.000000 -120.000000 180.000000
v -125.000000 -120.000000 40.000000
v -125.000000 -80.000000 40.000000
v -125.000000 -80.000000 180.000000
v -125.000000 -120.000000 180.000000
v -125.000000 -80.000000 40.000000
v -165.000000 -80.000000 40.000000
v -165.000000 -80.000000 180.000000
v -125.000000 -80.000000 180.000000
v -165.000000 -80.000000 40.000000
v -165.000000 -120.000000 40.000000
v -165.000000 -120.000000 180.000000
v -165.000000 -80.000000 180.000000
v 122.500000 -140.000000 145.000000
v 122.500000 140.000000 145.000000
v 167.500000 140.000000 145.000000
v 167.500000 -140.000000 145.000000
v 122.500000 -140.000000 185.000000
v 167.500000 -140.000000 185.000000
v 167.500000 140.000000 185.000000
v 122.500000 140.000000 185.000000
v 122.500000 -140.000000 145.000000
v 167.500000 -140.000000 145.000000
v 167.500000 -140.000000 185.000000
v 122.500000 -140.000000 185.000000
v 167.500000 -140.000000 145.000000
v 167.500000 140.000000 145.000000
v 167.500000 140.000000 185.000000
v 167.500000 -140.000000 185.000000
v 167.500000 140.000000 145.000000
v 122.500000 140.000000 145.000000
v 122.500000 140.000000 185.000000
v 167.500000 140.000000 185.000000
v 122.500000 140.000000 145.000000
v 122.500000 -140.000000 145.000000
v 122.500000 -140.000000 185.000000
v 122.500000 140.000000 185.000000
v 125.000000 -120.000000 40.000000
v 125.000000 -80.000000 40.000000
v 165.000000 -80.000000 40.000000
v 165.000000 -120.000000 40.000000
v 125.000000 -120.000000 180.000000
v 165.000000 -120.000000 180.000000
v 165.000000 -80.000000 180.000000
v 125.000000 -80.000000 180.000000
v 125.000000 -120.000000 40.000000
v 165.000000 -120.000000 40.000000
v 165.000000 -120.000000 180.000000
v 125.000000 -120.000000 180.000000
v 165.000000 -120.000000 40.000000
v 165.000000 -80.000000 40.000000
v 165.000000 -80.000000 180.000000
v 165.000000 -120.000000 180.000000
v 165.000000 -80.000000 40.000000
v 125.000000 -80.000000 40.000000
v 125.000000 -80.000000 180.000000
v 165.000000 -80.000000 180.000000
v 125.000000 -80.000000 40.000000
v 125.000000 -120.000000 40.000000
v 125.000000 -120.000000 180.000000
v 125.000000 -80.000000 180.000000
v -253.000000 -17.500000 200.000000
v -227.000000 -17.500000 200.000000
v -232.000000 -17.500000 536.000000
v -240.000000 -17.500000 586.000000
v -248.000000 -17.500000 536.000000
v -248.000000 17.500000 536.000000
v -240.000000 17.500000 586.000000
v -232.000000 17.500000 536.000000
v -227.000000 17.500000 200.000000
v -253.000000 17.500000 200.000000
v -253.000000 17.500000 200.000000
v -227.000000 17.500000 200.000000
v -227.000000 -17.500000 200.000000
v -253.000000 -17.500000 200.000000
v -227.000000 17.500000 200.000000
v -232.000000 17.500000 536.000000
v -232.000000 -17.500000 536.000000
v -227.000000 -17.500000 200.000000
v -232.000000 17.500000 536.000000
v -240.000000 17.500000 586.000000
v -240.000000 -17.500000 586.000000
v -232.000000 -17.500000 536.000000
v -240.000000 17.500000 586.000000
v -248.000000 17.500000 536.000000
v -248.000000 -17.500000 536.000000
v -240.000000 -17.500000 586.000000
v -248.000000 17.500000 536.000000
v -253.000000 17.500000 200.000000
v -253.000000 -17.500000 200.000000
v -248.000000 -17.500000 536.000000
v -173.000000 -17.500000 200.000000
v -147.000000 -17.500000 200.000000
v -152.000000 -17.500000 584.000000
v -160.000000 -17.500000 634.000000
v -168.000000 -17.500000 584.000000
v -168.000000 17.500000 584.000000
v -160.000000 17.500000 634.000000
v -152.000000 17.500000 584.000000
v -147.000000 17.500000 200.000000
v -173.000000 17.500000 200.000000
v -173.000000 17.500000 200.000000
v -147.000000 17.500000 200.000000
v -147.000000 -17.500000 200.000000
v -173.000000 -17.500000 200.000000
v -147.000000 17.500000 200.000000
v -152.000000 17.500000 584.000000
v -152.000000 -17.500000 584.000000
v -147.000000 -17.500000 200.000000
v -152.000000 17.500000 584.000000
v -160.000000 17.500000 634.000000
v -160.000000 -17.500000 634.000000
v -152.000000 -17.500000 584.000000
v -160.000000 17.500000 634.000000
v -168.000000 17.500000 584.000000
v -168.000000 -17.500000 584.000000
v -160.000000 -17.500000 634.000000
v -168.000000 17.500000 584.000000
v -173.000000 17.500000 200.000000
v -173.000000 -17.500000 200.000000
v -168.000000 -17.500000 584.000000
v -93.000000 -17.500000 200.000000
v -67.000000 -17.500000 200.000000
v -72.000000 -17.500000 632.000000
v -80.000000 -17.500000 682.000000
v -88.000000 -17.500000 632.000000
v -88.000000 17.500000 632.000000
v -80.000000 17.500000 682.000000
v -72.000000 17.500000 632.000000
v -67.000000 17.500000 200.000000
v -93.000000 17.500000 200.000000
v -93.000000 17.500000 200.000000
v -67.000000 17.500000 200.000000
v -67.000000 -17.500000 200.000000
v -93.000000 -17.500000 200.000000
v -67.000000 17.500000 200.000000
v -72.000000 17.500000 632.000000
v -72.000000 -17.500000 632.000000
v -67.000000 -17.500000 200.000000
v -72.000000 17.500000 632.000000
v -80.000000 17.500000 682.000000
v -80.000000 -17.500000 682.000000
v -72.000000 -17.500000 632.000000
v -80.000000 17.500000 682.000000
v -88.000000 17.500000 632.000000
v -88.000000 -17.500000 632.000000
v -80.000000 -17.500000 682.000000
v -88.000000 17.500000 632.000000
v -93.000000 17.500000 200.000000
v -93.000000 -17.500000 200.000000
v -88.000000 -17.500000 632.000000
v -13.000000 -17.500000 200.000000
v 13.000000 -17.500000 200.000000
v 8.000000 -17.500000 680.000000
v 0.000000 -17.500000 730.000000
v -8.000000 -17.500000 680.000000
v -8.000000 17.500000 680.000000
v 0.000000 17.500000 730.000000
v 8.000000 17.500000 680.000000
v 13.000000 17.500000 200.000000
v -13.000000 17.500000 200.000000
v -13.000000 17.500000 200.000000
v 13.000000 17.500000 200.000000
v 13.000000 -17.500000 200.000000
v -13.000000 -17.500000 200.000000
v 13.000000 17.500000 200.000000
v 8.000000 17.500000 680.000000
v 8.000000 -17.500000 680.000000
v 13.000000 -17.500000 200.000000
v 8.000000 17.500000 680.000000
v 0.000000 17.500000 730.000000
v 0.000000 -17.500000 730.000000
v 8.000000 -17.500000 680.000000
v 0.000000 17.500000 730.000000
v -8.000000 17.500000 680.000000
v -8.000000 -17.500000 680.000000
v 0.000000 -17.500000 730.000000
v -8.000000 17.500000 680.000000
v -13.000000 17.500000 200.000000
v -13.000000 -17.500000 200.000000
v -8.000000 -17.500000 680.000000
v 67.000000 -17.500000 200.000000
v 93.000000 -17.500000 200.000000
v 88.000000 -17.500000 632.000000
v 80.000000 -17.500000 682.000000
v 72.000000 -17.500000 632.000000
v 72.000000 17.500000 632.000000
v 80.000000 17.500000 682.000000
v 88.000000 17.500000 632.000000
v 93.000000 17.500000 200.000000
v 67.000000 17.500000 200.000000
v 67.000000 17.500000 200.000000
v 93.000000 17.500000 200.000000
v 93.000000 -17.500000 200.000000
v 67.000000 -17.500000 200.000000
v 93.000000 17.500000 200.000000
v 88.000000 17.500000 632.000000
v 88.000000 -17.500000 632.000000
v 93.000000 -17.500000 200.000000
v 88.000000 17.500000 632.000000
v 80.000000 17.500000 682.000000
v 80.000000 -17.500000 682.000000
v 88.000000 -17.500000 632.000000
v 80.000000 17.500000 682.000000
v 72.000000 17.500000 632.000000
v 72.000000 -17.500000 632.000000
v 80.000000 -17.500000 682.000000
v 72.000000 17.500000 632.000000
v 67.000000 17.500000 200.000000
v 67.000000 -17.500000 200.000000
v 72.000000 -17.500000 632.000000
v 147.000000 -17.500000 200.000000
v 173.000000 -17.500000 200.000000
v 168.000000 -17.500000 584.000000
v 160.000000 -17.500000 634.000000
v 152.000000 -17.500000 584.000000
v 152.000000 17.500000 584.000000
v 160.000000 17.500000 634.000000
v 168.000000 17.500000 584.000000
v 173.000000 17.500000 200.000000
v 147.000000 17.500000 200.000000
v 147.000000 17.500000 200.000000
v 173.000000 17.500000 200.000000
v 173.000000 -17.500000 200.000000
v 147.000000 -17.500000 200.000000
v 173.000000 17.500000 200.000000
v 168.000000 17.500000 584.000000
v 168.000000 -17.500000 584.000000
v 173.000000 -17.500000 200.000000
v 168.000000 17.500000 584.000000
v 160.000000 17.500000 634.000000
v 160.000000 -17.500000 634.000000
v 168.000000 -17.500000 584.000000
v 160.000000 17.500000 634.000000
v 152.000000 17.500000 584.000000
v 152.000000 -17.500000 584.000000
v 160.000000 -17.500000 634.000000
v 152.000000 17.500000 584.000000
v 147.000000 17.500000 200.000000
v 147.000000 -17.500000 200.000000
v 152.000000 -17.500000 584.000000
v 227.000000 -17.500000 200.000000
v 253.000000 -17.500000 200.000000
v 248.000000 -17.500000 536.000000
v 240.000000 -17.500000 586.000000
v 232.000000 -17.500000 536.000000
v 232.000000 17.500000 536.000000
v 240.000000 17.500000 586.000000
v 248.000000 17.500000 536.000000
v 253.000000 17.500000 200.000000
v 227.000000 17.500000 200.000000
v 227.000000 17.500000 200.000000
v 253.000000 17.500000 200.000000
v 253.000000 -17.500000 200.000000
v 227.000000 -17.500000 200.000000
v 253.000000 17.500000 200.000000
v 248.000000 17.500000 536.000000
v 248.000000 -17.500000 536.000000
v 253.000000 -17.500000 200.000000
v 248.000000 17.500000 536.000000
v 240.000000 17.500000 586.000000
v 240.000000 -17.500000 586.000000
v 248.000000 -17.500000 536.000000
v 240.000000 17.500000 586.000000
v 232.000000 17.500000 536.000000
v 232.000000 -17.500000 536.000000
v 240.000000 -17.500000 586.000000
v 232.000000 17.500000 536.000000
v 227.000000 17.500000 200.000000
v 227.000000 -17.500000 200.000000
v 232.000000 -17.500000 536.000000
v -35.000000 73.000000 265.000000
v -35.000000 88.000000 265.000000
v 35.000000 88.000000 265.000000
v 35.000000 73.000000 265.000000
v -35.000000 73.000000 385.000000
v 35.000000 73.000000 385.000000
v 35.000000 88.000000 385.000000
v -35.000000 88.000000 385.000000
v -35.000000 73.000000 265.000000
v 35.000000 73.000000 265.000000
v 35.000000 73.000000 385.000000
v -35.000000 73.000000 385.000000
v 35.000000 73.000000 265.000000
v 35.000000 88.000000 265.000000
v 35.000000 88.000000 385.000000
v 35.000000 73.000000 385.000000
v 35.000000 88.000000 265.000000
v -35.000000 88.000000 265.000000
v -35.000000 88.000000 385.000000
v 35.000000 88.000000 385.000000
v -35.000000 88.000000 265.000000
v -35.000000 73.000000 265.000000
v -35.000000 73.000000 385.000000
v -35.000000 88.000000 385.000000
vt -3.000000 -2.500000
vt -3.000000 2.500000
vt 3.000000 2.500000
vt 3.000000 -2.500000
vt -3.000000 -2.500000
vt 3.000000 -2.500000
vt 3.000000 2.500000
vt -3.000000 2.500000
vt -3.000000 0.000000
vt 3.000000 0.000000
vt 3.000000 0.400000
vt -3.000000 0.400000
vt -2.500000 0.000000
vt 2.500000 0.000000
vt 2.500000 0.400000
vt -2.500000 0.400000
vt 3.000000 0.000000
vt -3.000000 0.000000
vt -3.000000 0.400000
vt 3.000000 0.400000
vt 2.500000 0.000000
vt -2.500000 0.000000
vt -2.500000 0.400000
vt 2.500000 0.400000
vt -1.600000 -1.100000
vt -1.600000 1.600000
vt 1.600000 1.600000
vt 1.600000 -1.100000
vt -1.600000 -1.100000
vt 1.600000 -1.100000
vt 1.600000 1.600000
vt -1.600000 1.600000
vt -1.600000 0.400000
vt 1.600000 0.400000
vt 1.600000 1.000000
vt -1.600000 1.000000
vt -1.100000 0.400000
vt 1.600000 0.400000
vt 1.600000 1.000000
vt -1.100000 1.000000
vt 1.600000 0.400000
vt -1.600000 0.400000
vt -1.600000 1.000000
vt 1.600000 1.000000
vt 1.600000 0.400000
vt -1.100000 0.400000
vt -1.100000 1.000000
vt 1.600000 1.000000
vt -1.350000 -0.900000
vt -1.350000 1.400000
vt 1.350000 1.400000
vt 1.350000 -0.900000
vt -1.350000 -0.900000
vt 1.350000 -0.900000
vt 1.350000 1.400000
vt -1.350000 1.400000
vt -1.350000 1.000000
vt 1.350000 1.000000
vt 1.350000 1.400000
vt -1.350000 1.400000
vt -0.900000 1.000000
vt 1.400000 1.000000
vt 1.400000 1.400000
vt -0.900000 1.400000
vt 1.350000 1.000000
vt -1.350000 1.000000
vt -1.350000 1.400000
vt 1.350000 1.400000
vt 1.400000 1.000000
vt -0.900000 1.000000
vt -0.900000 1.400000
vt 1.400000 1.400000
vt -1.200000 -0.800000
vt -1.200000 1.300000
vt 1.200000 1.300000
vt 1.200000 -0.800000
vt -1.200000 -0.800000
vt 1.200000 -0.800000
vt 1.200000 1.300000
vt -1.200000 1.300000
vt -1.200000 1.400000
vt 1.200000 1.400000
vt 1.200000 1.700000
vt -1.200000 1.700000
vt -0.800000 1.400000
vt 1.300000 1.400000
vt 1.300000 1.700000
vt -0.800000 1.700000
vt 1.200000 1.400000
vt -1.200000 1.400000
vt -1.200000 1.700000
vt 1.200000 1.700000
vt 1.300000 1.400000
vt -0.800000 1.400000
vt -0.800000 1.700000
vt 1.300000 1.700000
vt -1.250000 0.850000
vt -1.250000 1.350000
vt 1.250000 1.350000
vt 1.250000 0.850000
vt -1.250000 0.850000
vt 1.250000 0.850000
vt 1.250000 1.350000
vt -1.250000 1.350000
vt -1.250000 1.600000
vt 1.250000 1.600000
vt 1.250000 4.600000
vt -1.250000 4.600000
vt 0.850000 1.600000
vt 1.350000 1.600000
vt 1.350000 4.600000
vt 0.850000 4.600000
vt 1.250000 1.600000
vt -1.250000 1.600000
vt -1.250000 4.600000
vt 1.250000 4.600000
vt 1.350000 1.600000
vt 0.850000 1.600000
vt 0.850000 4.600000
vt 1.350000 4.600000
vt -1.675000 -1.400000
vt -1.675000 1.400000
vt -1.225000 1.400000
vt -1.225000 -1.400000
vt -1.675000 -1.400000
vt -1.225000 -1.400000
vt -1.225000 1.400000
vt -1.675000 1.400000
vt -1.675000 1.450000
vt -1.225000 1.450000
vt -1.225000 1.850000
vt -1.675000 1.850000
vt -1.400000 1.450000
vt 1.400000 1.450000
vt 1.400000 1.850000
vt -1.400000 1.850000
vt -1.225000 1.450000
vt -1.675000 1.450000
vt -1.675000 1.850000
vt -1.225000 1.850000
vt 1.400000 1.450000
vt -1.400000 1.450000
vt -1.400000 1.850000
vt 1.400000 1.850000
vt -1.650000 -1.200000
vt -1.650000 -0.800000
vt -1.250000 -0.800000
vt -1.250000 -1.200000
vt -1.650000 -1.200000
vt -1.250000 -1.200000
vt -1.250000 -0.800000
vt -1.650000 -0.800000
vt -1.650000 0.400000
vt -1.250000 0.400000
vt -1.250000 1.800000
vt -1.650000 1.800000
vt -1.200000 0.400000
vt -0.800000 0.400000
vt -0.800000 1.800000
vt -1.200000 1.800000
vt -1.250000 0.400000
vt -1.650000 0.400000
vt -1.650000 1.800000
vt -1.250000 1.800000
vt -0.800000 0.400000
vt -1.200000 0.400000
vt -1.200000 1.800000
vt -0.800000 1.800000
vt 1.225000 -1.400000
vt 1.225000 1.400000
vt 1.675000 1.400000
vt 1.675000 -1.400000
vt 1.225000 -1.400000
vt 1.675000 -1.400000
vt 1.675000 1.400000
vt 1.225000 1.400000
vt 1.225000 1.450000
vt 1.675000 1.450000
vt 1.675000 1.850000
vt 1.225000 1.850000
vt -1.400000 1.450000
vt 1.400000 1.450000
vt 1.400000 1.850000
vt -1.400000 1.850000
vt 1.675000 1.450000
vt 1.225000 1.450000
vt 1.225000 1.850000
vt 1.675000 1.850000
vt 1.400000 1.450000
vt -1.400000 1.450000
vt -1.400000 1.850000
vt 1.400000 1.850000
vt 1.250000 -1.200000
vt 1.250000 -0.800000
vt 1.650000 -0.800000
vt 1.650000 -1.200000
vt 1.250000 -1.200000
vt 1.650000 -1.200000
vt 1.650000 -0.800000
vt 1.250000 -0.800000
vt 1.250000 0.400000
vt 1.650000 0.400000
vt 1.650000 1.800000
vt 1.250000 1.800000
vt -1.200000 0.400000
vt -0.800000 0.400000
vt -0.800000 1.800000
vt -1.200000 1.800000
vt 1.650000 0.400000
vt 1.250000 0.400000
vt 1.250000 1.800000
vt 1.650000 1.800000
vt -0.800000 0.400000
vt -1.200000 0.400000
vt -1.200000 1.800000
vt -0.800000 1.800000
vt -2.530000 2.000000
vt -2.270000 2.000000
vt -2.320000 5.360000
vt -2.400000 5.860000
vt -2.480000 5.360000
vt -2.480000 5.360000
vt -2.400000 5.860000
vt -2.320000 5.360000
vt -2.270000 2.000000
vt -2.530000 2.000000
vt -2.530000 0.175000
vt -2.270000 0.175000
vt -2.270000 -0.175000
vt -2.530000 -0.175000
vt 0.175000 2.000000
vt 0.175000 5.360000
vt -0.175000 5.360000
vt -0.175000 2.000000
vt 0.175000 5.360000
vt 0.175000 5.860000
vt -0.175000 5.860000
vt -0.175000 5.360000
vt 0.175000 5.860000
vt 0.175000 5.360000
vt -0.175000 5.360000
vt -0.175000 5.860000
vt 0.175000 5.360000
vt 0.175000 2.000000
vt -0.175000 2.000000
vt -0.175000 5.360000
vt -1.730000 2.000000
vt -1.470000 2.000000
vt -1.520000 5.840000
vt -1.600000 6.340000
vt -1.680000 5.840000
vt -1.680000 5.840000
vt -1.600000 6.340000
vt -1.520000 5.840000
vt -1.470000 2.000000
vt -1.730000 2.000000
vt -1.730000 0.175000
vt -1.470000 0.175000
vt -1.470000 -0.175000
vt -1.730000 -0.175000
vt 0.175000 2.000000
vt 0.175000 5.840000
vt -0.175000 5.840000
vt -0.175000 2.000000
vt 0.175000 5.840000
vt 0.175000 6.340000
vt -0.175000 6.340000
vt -0.175000 5.840000
vt 0.175000 6.340000
vt 0.175000 5.840000
vt -0.175000 5.840000
vt -0.175000 6.340000
vt 0.175000 5.840000
vt 0.175000 2.000000
vt -0.175000 2.000000
vt -0.175000 5.840000
vt -0.930000 2.000000
vt -0.670000 2.000000
vt -0.720000 6.320000
vt -0.800000 6.820000
vt -0.880000 6.320000
vt -0.880000 6.320000
vt -0.800000 6.820000
vt -0.720000 6.320000
vt -0.670000 2.000000
vt -0.930000 2.000000
vt -0.930000 0.175000
vt -0.670000 0.175000
vt -0.670000 -0.175000
vt -0.930000 -0.175000
vt 0.175000 2.000000
vt 0.175000 6.320000
vt -0.175000 6.320000
vt -0.175000 2.000000
vt 0.175000 6.320000
vt 0.175000 6.820000
vt -0.175000 6.820000
vt -0.175000 6.320000
vt 0.175000 6.820000
vt 0.175000 6.320000
vt -0.175000 6.320000
vt -0.175000 6.820000
vt 0.175000 6.320000
vt 0.175000 2.000000
vt -0.175000 2.000000
vt -0.175000 6.320000
vt -0.130000 2.000000
vt 0.130000 2.000000
vt 0.080000 6.800000
vt 0.000000 7.300000
vt -0.080000 6.800000
vt -0.080000 6.800000
vt 0.000000 7.300000
vt 0.080000 6.800000
vt 0.130000 2.000000
vt -0.130000 2.000000
vt -0.130000 0.175000
vt 0.130000 0.175000
vt 0.130000 -0.175000
vt -0.130000 -0.175000
vt 0.175000 2.000000
vt 0.175000 6.800000
vt -0.175000 6.800000
vt -0.175000 2.000000
vt 0.175000 6.800000
vt 0.175000 7.300000
vt -0.175000 7.300000
vt -0.175000 6.800000
vt 0.175000 7.300000
vt 0.175000 6.800000
vt -0.175000 6.800000
vt -0.175000 7.300000
vt 0.175000 6.800000
vt 0.175000 2.000000
vt -0.175000 2.000000
vt -0.175000 6.800000
vt 0.670000 2.000000
vt 0.930000 2.000000
vt 0.880000 6.320000
vt 0.800000 6.820000
vt 0.720000 6.320000
vt 0.720000 6.320000
vt 0.800000 6.820000
vt 0.880000 6.320000
vt 0.930000 2.000000
vt 0.670000 2.000000
vt 0.670000 0.175000
vt 0.930000 0.175000
vt 0.930000 -0.175000
vt 0.670000 -0.175000
vt 0.175000 2.000000
vt 0.175000 6.320000
vt -0.175000 6.320000
vt -0.175000 2.000000
vt 0.175000 6.320000
vt 0.175000 6.820000
vt -0.175000 6.820000
vt -0.175000 6.320000
vt 0.175000 6.820000
vt 0.175000 6.320000
vt -0.175000 6.320000
vt -0.175000 6.820000
vt 0.175000 6.320000
vt 0.175000 2.000000
vt -0.175000 2.000000
vt -0.175000 6.320000
vt 1.470000 2.000000
vt 1.730000 2.000000
vt 1.680000 5.840000
vt 1.600000 6.340000
vt 1.520000 5.840000
vt 1.520000 5.840000
vt 1.600000 6.340000
vt 1.680000 5.840000
vt 1.730000 2.000000
vt 1.470000 2.000000
vt 1.470000 0.175000
vt 1.730000 0.175000
vt 1.730000 -0.175000
vt 1.470000 -0.175000
vt 0.175000 2.000000
vt 0.175000 5.840000
vt -0.175000 5.840000
vt -0.175000 2.000000
vt 0.175000 5.840000
vt 0.175000 6.340000
vt -0.175000 6.340000
vt -0.175000 5.840000
vt 0.175000 6.340000
vt 0.175000 5.840000
vt -0.175000 5.840000
vt -0.175000 6.340000
vt 0.175000 5.840000
vt 0.175000 2.000000
vt -0.175000 2.000000
vt -0.175000 5.840000
vt 2.270000 2.000000
vt 2.530000 2.000000
vt 2.480000 5.360000
vt 2.400000 5.860000
vt 2.320000 5.360000
vt 2.320000 5.360000
vt 2.400000 5.860000
vt 2.480000 5.360000
vt 2.530000 2.000000
vt 2.270000 2.000000
vt 2.270000 0.175000
vt 2.530000 0.175000
vt 2.530000 -0.175000
vt 2.270000 -0.175000
vt 0.175000 2.000000
vt 0.175000 5.360000
vt -0.175000 5.360000
vt -0.175000 2.000000
vt 0.175000 5.360000
vt 0.175000 5.860000
vt -0.175000 5.860000
vt -0.175000 5.360000
vt 0.175000 5.860000
vt 0.175000 5.360000
vt -0.175000 5.360000
vt -0.175000 5.860000
vt 0.175000 5.360000
vt 0.175000 2.000000
vt -0.175000 2.000000
vt -0.175000 5.360000
vt -0.350000 0.730000
vt -0.350000 0.880000
vt 0.350000 0.880000
vt 0.350000 0.730000
vt -0.350000 0.730000
vt 0.350000 0.730000
vt 0.350000 0.880000
vt -0.350000 0.880000
vt -0.350000 2.650000
vt 0.350000 2.650000
vt 0.350000 3.850000
vt -0.350000 3.850000
vt 0.730000 2.650000
vt 0.880000 2.650000
vt 0.880000 3.850000
vt 0.730000 3.850000
vt 0.350000 2.650000
vt -0.350000 2.650000
vt -0.350000 3.850000
vt 0.350000 3.850000
vt 0.880000 2.650000
vt 0.730000 2.650000
vt 0.730000 3.850000
vt 0.880000 3.850000
vn 0.0000000 0.0000000 -1.0000000
vn 0.0000000 0.0000000 -1.0000000
vn 0.0000000 0.0000000 -1.0000000
vn 0.0000000 0.0000000 -1.0000000
vn 0.0000000 0.0000000 1.0000000
vn 0.0000000 0.0000000 1.0000000
vn 0.0000000 0.0000000 1.0000000
vn 0.0000000 0.0000000 1.0000000
vn 0.0000000 -1.0000000 0.0000000
vn 0.0000000 -1.0000000 0.0000000
vn 0.0000000 -1.0000000 0.0000000
vn 0.0000000 -1.0000000 0.0000000
vn 1.0000000 0.0000000 0.0000000
vn 1.0000000 0.0000000 0.0000000
vn 1.0000000 0.0000000 0.0000000
vn 1.0000000 0.0000000 0.0000000
vn 0.0000000 1.0000000 0.0000000
vn 0.0000000 1.0000000 0.0000000
vn 0.0000000 1.0000000 0.0000000
vn 0.0000000 1.0000000 0.0000000
vn -1.0000000 0.0000000 0.0000000
vn -1.0000000 0.0000000 0.0000000
vn -1.0000000 0.0000000 0.0000000
vn -1.0000000 0.0000000 0.0000000
vn 0.0000000 0.0000000 -1.0000000
vn 0.0000000 0.0000000 -1.0000000
vn 0.0000000 0.0000000 -1.0000000
vn 0.0000000 0.0000000 -1.0000000
vn 0.0000000 0.0000000 1.0000000
vn 0.0000000 0.0000000 1.0000000
vn 0.0000000 0.0000000 1.0000000
vn 0.0000000 0.0000000 1.0000000
vn 0.0000000 -1.0000000 0.0000000
vn 0.0000000 -1.0000000 0.0000000
vn 0.0000000 -1.0000000 0.0000000
vn 0.0000000 -1.0000000 0.0000000
vn 1.0000000 0.0000000 0.0000000
vn 1.0000000 0.0000000 0.0000000
vn 1.0000000 0.0000000 0.0000000
vn 1.0000000 0.0000000 0.0000000
vn 0.0000000 1.0000000 0.0000000
vn 0.0000000 1.0000000 0.0000000
vn 0.0000000 1.0000000 0.0000000
vn 0.0000000 1.0000000 0.0000000
vn -1.0000000 0.0000000 0.0000000
vn -1.0000000 0.0000000 0.0000000
vn -1.0000000 0.0000000 0.0000000
vn -1.0000000 0.0000000 0.0000000
vn 0.0000000 0.0000000 -1.0000000
vn 0.0000000 0.0000000 -1.0000000
vn 0.0000000 0.0000000 -1.0000000
vn 0.0000000 0.0000000 -1.0000000
vn 0.0000000 0.0000000 1.0000000
vn 0.0000000 0.0000000 1.0000000
vn 0.0000000 0.0000000 1.0000000
vn 0.0000000 0.0000000 1.0000000
vn 0.0000000 -1.0000000 0.0000000
vn 0.0000000 -1.0000000 0.0000000
vn 0.0000000 -1.0000000 0.0000000
vn 0.0000000 -1.0000000 0.0000000
vn 1.0000000 0.0000000 0.0000000
vn 1.0000000 0.0000000 0.0000000
vn 1.0000000 0.0000000 0.0000000
vn 1.0000000 0.0000000 0.0000000
vn 0.0000000 1.0000000 0.0000000
vn 0.0000000 1.0000000 0.0000000
vn 0.0000000 1.0000000 0.0000000
vn 0.0000000 1.0000000 0.0000000
vn -1.0000000 0.0000000 0.0000000
vn -1.0000000 0.0000000 0.0000000
vn -1.0000000 0.0000000 0.0000000
vn -1.0000000 0.0000000 0.0000000
vn 0.0000000 0.0000000 -1.0000000
vn 0.0000000 0.0000000 -1.0000000
vn 0.0000000 0.0000000 -1.0000000
vn 0.0000000 0.0000000 -1.0000000
vn 0.0000000 0.0000000 1.0000000
vn 0.0000000 0.0000000 1.0000000
vn 0.0000000 0.0000000 1.0000000
vn 0.0000000 0.0000000 1.0000000
vn 0.0000000 -1.0000000 0.0000000
vn 0.0000000 -1.0000000 0.0000000
vn 0.0000000 -1.0000000 0.0000000
vn 0.0000000 -1.0000000 0.0000000
vn 1.0000000 0.0000000 0.0000000
vn 1.0000000 0.0000000 0.0000000
vn 1.0000000 0.0000000 0.0000000
vn 1.0000000 0.0000000 0.0000000
vn 0.0000000 1.0000000 0.0000000
vn 0.0000000 1.0000000 0.0000000
vn 0.0000000 1.0000000 0.0000000
vn 0.0000000 1.0000000 0.0000000
vn -1.0000000 0.0000000 0.0000000
vn -1.0000000 0.0000000 0.0000000
vn -1.0000000 0.0000000 0.0000000
vn -1.0000000 0.0000000 0.0000000
vn 0.0000000 0.0000000 -1.0000000
vn 0.0000000 0.0000000 -1.0000000
vn 0.0000000 0.0000000 -1.0000000
vn 0.0000000 0.0000000 -1.0000000
vn 0.0000000 0.0000000 1.0000000
vn 0.0000000 0.0000000 1.0000000
vn 0.0000000 0.0000000 1.0000000
vn 0.0000000 0.0000000 1.0000000
vn 0.0000000 -1.0000000 0.0000000
vn 0.0000000 -1.0000000 0.0000000
vn 0.0000000 -1.0000000 0.0000000
vn 0.0000000 -1.0000000 0.0000000
vn 1.0000000 0.0000000 0.0000000
vn 1.0000000 0.0000000 0.0000000
vn 1.0000000 0.0000000 0.0000000
vn 1.0000000 0.0000000 0.0000000
vn 0.0000000 1.0000000 0.0000000
vn 0.0000000 1.0000000 0.0000000
vn 0.0000000 1.0000000 0.0000000
vn 0.0000000 1.0000000 0.0000000
vn -1.0000000 0.0000000 0.0000000
vn -1.0000000 0.0000000 0.0000000
vn -1.0000000 0.0000000 0.0000000
vn -1.0000000 0.0000000 0.0000000
vn 0.0000000 0.0000000 -1.0000000
vn 0.0000000 0.0000000 -1.0000000
vn 0.0000000 0.0000000 -1.0000000
vn 0.0000000 0.0000000 -1.0000000
vn 0.0000000 0.0000000 1.0000000
vn 0.0000000 0.0000000 1.0000000
vn 0.0000000 0.0000000 1.0000000
vn 0.0000000 0.0000000 1.0000000
vn 0.0000000 -1.0000000 0.0000000
vn 0.0000000 -1.0000000 0.0000000
vn 0.0000000 -1.0000000 0.0000000
vn 0.0000000 -1.0000000 0.0000000
vn 1.0000000 0.0000000 0.0000000
vn 1.0000000 0.0000000 0.0000000
vn 1.0000000 0.0000000 0.0000000
vn 1.0000000 0.0000000 0.0000000
vn 0.0000000 1.0000000 0.0000000
vn 0.0000000 1.0000000 0.0000000
vn 0.0000000 1.0000000 0.0000000
vn 0.0000000 1.0000000 0.0000000
vn -1.0000000 0.0000000 0.0000000
vn -1.0000000 0.0000000 0.0000000
vn -1.0000000 0.0000000 0.0000000
vn -1.0000000 0.0000000 0.0000000
vn 0.0000000 0.0000000 -1.0000000
vn 0.0000000 0.0000000 -1.0000000
vn 0.0000000 0.0000000 -1.0000000
vn 0.0000000 0.0000000 -1.0000000
vn 0.0000000 0.0000000 1.0000000
vn 0.0000000 0.0000000 1.0000000
vn 0.0000000 0.0000000 1.0000000
vn 0.0000000 0.0000000 1.0000000
vn 0.0000000 -1.0000000 0.0000000
vn 0.0000000 -1.0000000 0.0000000
vn 0.0000000 -1.0000000 0.0000000
vn 0.0000000 -1.0000000 0.0000000
vn 1.0000000 0.0000000 0.0000000
vn 1.0000000 0.0000000 0.0000000
vn 1.0000000 0.0000000 0.0000000
vn 1.0000000 0.0000000 0.0000000
vn 0.0000000 1.0000000 0.0000000
vn 0.0000000 1.0000000 0.0000000
vn 0.0000000 1.0000000 0.0000000
vn 0.0000000 1.0000000 0.0000000
vn -1.0000000 0.0000000 0.0000000
vn -1.0000000 0.0000000 0.0000000
vn -1.0000000 0.0000000 0.0000000
vn -1.0000000 0.0000000 0.0000000
vn 0.0000000 0.0000000 -1.0000000
vn 0.0000000 0.0000000 -1.0000000
vn 0.0000000 0.0000000 -1.0000000
vn 0.0000000 0.0000000 -1.0000000
vn 0.0000000 0.0000000 1.0000000
vn 0.0000000 0.0000000 1.0000000
vn 0.0000000 0.0000000 1.0000000
vn 0.0000000 0.0000000 1.0000000
vn 0.0000000 -1.0000000 0.0000000
vn 0.0000000 -1.0000000 0.0000000
vn 0.0000000 -1.0000000 0.0000000
vn 0.0000000 -1.0000000 0.0000000
vn 1.0000000 0.0000000 0.0000000
vn 1.0000000 0.0000000 0.0000000
vn 1.0000000 0.0000000 0.0000000
vn 1.0000000 0.0000000 0.0000000
vn 0.0000000 1.0000000 0.0000000
vn 0.0000000 1.0000000 0.0000000
vn 0.0000000 1.0000000 0.0000000
vn 0.0000000 1.0000000 0.0000000
vn -1.0000000 0.0000000 0.0000000
vn -1.0000000 0.0000000 0.0000000
vn -1.0000000 0.0000000 0.0000000
vn -1.0000000 0.0000000 0.0000000
vn 0.0000000 0.0000000 -1.0000000
vn 0.0000000 0.0000000 -1.0000000
vn 0.0000000 0.0000000 -1.0000000
vn 0.0000000 0.0000000 -1.0000000
vn 0.0000000 0.0000000 1.0000000
vn 0.0000000 0.0000000 1.0000000
vn 0.0000000 0.0000000 1.0000000
vn 0.0000000 0.0000000 1.0000000
vn 0.0000000 -1.0000000 0.0000000
vn 0.0000000 -1.0000000 0.0000000
vn 0.0000000 -1.0000000 0.0000000
vn 0.0000000 -1.0000000 0.0000000
vn 1.0000000 0.0000000 0.0000000
vn 1.0000000 0.0000000 0.0000000
vn 1.0000000 0.0000000 0.0000000
vn 1.0000000 0.0000000 0.0000000
vn 0.0000000 1.0000000 0.0000000
vn 0.0000000 1.0000000 0.0000000
vn 0.0000000 1.0000000 0.0000000
vn 0.0000000 1.0000000 0.0000000
vn -1.0000000 0.0000000 0.0000000
vn -1.0000000 0.0000000 0.0000000
vn -1.0000000 0.0000000 0.0000000
vn -1.0000000 0.0000000 0.0000000
vn 0.0000000 -1.0000000 0.0000000
vn 0.0000000 -1.0000000 0.0000000
vn 0.0000000 -1.0000000 0.0000000
vn 0.0000000 -1.0000000 0.0000000
vn 0.0000000 -1.0000000 0.0000000
vn -0.0000000 1.0000000 -0.0000000
vn -0.0000000 1.0000000 -0.0000000
vn -0.0000000 1.0000000 -0.0000000
vn -0.0000000 1.0000000 -0.0000000
vn -0.0000000 1.0000000 -0.0000000
vn -0.0000000 -0.0000000 -1.0000000
vn -0.0000000 -0.0000000 -1.0000000
vn -0.0000000 -0.0000000 -1.0000000
vn -0.0000000 -0.0000000 -1.0000000
vn 0.9998893 -0.0000000 0.0148793
vn 0.9998893 -0.0000000 0.0148793
vn 0.9998893 -0.0000000 0.0148793
vn 0.9998893 -0.0000000 0.0148793
vn 0.9874406 -0.0000000 0.1579905
vn 0.9874406 -0.0000000 0.1579905
vn 0.9874406 -0.0000000 0.1579905
vn 0.9874406 -0.0000000 0.1579905
vn -0.9874406 -0.0000000 0.1579905
vn -0.9874406 -0.0000000 0.1579905
vn -0.9874406 -0.0000000 0.1579905
vn -0.9874406 -0.0000000 0.1579905
vn -0.9998893 -0.0000000 0.0148793
vn -0.9998893 -0.0000000 0.0148793
vn -0.9998893 -0.0000000 0.0148793
vn -0.9998893 -0.0000000 0.0148793
vn 0.0000000 -1.0000000 0.0000000
vn 0.0000000 -1.0000000 0.0000000
vn 0.0000000 -1.0000000 0.0000000
vn 0.0000000 -1.0000000 0.0000000
vn 0.0000000 -1.0000000 0.0000000
vn -0.0000000 1.0000000 -0.0000000
vn -0.0000000 1.0000000 -0.0000000
vn -0.0000000 1.0000000 -0.0000000
vn -0.0000000 1.0000000 -0.0000000
vn -0.0000000 1.0000000 -0.0000000
vn -0.0000000 -0.0000000 -1.0000000
vn -0.0000000 -0.0000000 -1.0000000
vn -0.0000000 -0.0000000 -1.0000000
vn -0.0000000 -0.0000000 -1.0000000
vn 0.9999152 -0.0000000 0.0130197
vn 0.9999152 -0.0000000 0.0130197
vn 0.9999152 -0.0000000 0.0130197
vn 0.9999152 -0.0000000 0.0130197
vn 0.9874406 -0.0000000 0.1579905
vn 0.9874406 -0.0000000 0.1579905
vn 0.9874406 -0.0000000 0.1579905
vn 0.9874406 -0.0000000 0.1579905
vn -0.9874406 -0.0000000 0.1579905
vn -0.9874406 -0.0000000 0.1579905
vn -0.9874406 -0.0000000 0.1579905
vn -0.9874406 -0.0000000 0.1579905
vn -0.9999152 -0.0000000 0.0130197
vn -0.9999152 -0.0000000 0.0130197
vn -0.9999152 -0.0000000 0.0130197
vn -0.9999152 -0.0000000 0.0130197
vn 0.0000000 -1.0000000 0.0000000
vn 0.0000000 -1.0000000 0.0000000
vn 0.0000000 -1.0000000 0.0000000
vn 0.0000000 -1.0000000 0.0000000
vn 0.0000000 -1.0000000 0.0000000
vn -0.0000000 1.0000000 -0.0000000
vn -0.0000000 1.0000000 -0.0000000
vn -0.0000000 1.0000000 -0.0000000
vn -0.0000000 1.0000000 -0.0000000
vn -0.0000000 1.0000000 -0.0000000
vn -0.0000000 -0.0000000 -1.0000000
vn -0.0000000 -0.0000000 -1.0000000
vn -0.0000000 -0.0000000 -1.0000000
vn -0.0000000 -0.0000000 -1.0000000
vn 0.9999330 -0.0000000 0.0115733
vn 0.9999330 -0.0000000 0.0115733
vn 0.9999330 -0.0000000 0.0115733
vn 0.9999330 -0.0000000 0.0115733
vn 0.9874406 -0.0000000 0.1579905
vn 0.9874406 -0.0000000 0.1579905
vn 0.9874406 -0.0000000 0.1579905
vn 0.9874406 -0.0000000 0.1579905
vn -0.9874406 -0.0000000 0.1579905
vn -0.9874406 -0.0000000 0.1579905
vn -0.9874406 -0.0000000 0.1579905
vn -0.9874406 -0.0000000 0.1579905
vn -0.9999330 -0.0000000 0.0115733
vn -0.9999330 -0.0000000 0.0115733
vn -0.9999330 -0.0000000 0.0115733
vn -0.9999330 -0.0000000 0.0115733
vn 0.0000000 -1.0000000 0.0000000
vn 0.0000000 -1.0000000 0.0000000
vn 0.0000000 -1.0000000 0.0000000
vn 0.0000000 -1.0000000 0.0000000
vn 0.0000000 -1.0000000 0.0000000
vn -0.0000000 1.0000000 -0.0000000
vn -0.0000000 1.0000000 -0.0000000
vn -0.0000000 1.0000000 -0.0000000
vn -0.0000000 1.0000000 -0.0000000
vn -0.0000000 1.0000000 -0.0000000
vn -0.0000000 -0.0000000 -1.0000000
vn -0.0000000 -0.0000000 -1.0000000
vn -0.0000000 -0.0000000 -1.0000000
vn -0.0000000 -0.0000000 -1.0000000
vn 0.9999458 -0.0000000 0.0104161
vn 0.9999458 -0.0000000 0.0104161
vn 0.9999458 -0.0000000 0.0104161
vn 0.9999458 -0.0000000 0.0104161
vn 0.9874406 -0.0000000 0.1579905
vn 0.9874406 -0.0000000 0.1579905
vn 0.9874406 -0.0000000 0.1579905
vn 0.9874406 -0.0000000 0.1579905
vn -0.9874406 -0.0000000 0.1579905
vn -0.9874406 -0.0000000 0.1579905
vn -0.9874406 -0.0000000 0.1579905
vn -0.9874406 -0.0000000 0.1579905
vn -0.9999458 -0.0000000 0.0104161
vn -0.9999458 -0.0000000 0.0104161
vn -0.9999458 -0.0000000 0.0104161
vn -0.9999458 -0.0000000 0.0104161
vn 0.0000000 -1.0000000 0.0000000
vn 0.0000000 -1.0000000 0.0000000
vn 0.0000000 -1.0000000 0.0000000
vn 0.0000000 -1.0000000 0.0000000
vn 0.0000000 -1.0000000 0.0000000
vn -0.0000000 1.0000000 -0.0000000
vn -0.0000000 1.0000000 -0.0000000
vn -0.0000000 1.0000000 -0.0000000
vn -0.0000000 1.0000000 -0.0000000
vn -0.0000000 1.0000000 -0.0000000
vn -0.0000000 -0.0000000 -1.0000000
vn -0.0000000 -0.0000000 -1.0000000
vn -0.0000000 -0.0000000 -1.0000000
vn -0.0000000 -0.0000000 -1.0000000
vn 0.9999330 -0.0000000 0.0115733
vn 0.9999330 -0.0000000 0.0115733
vn 0.9999330 -0.0000000 0.0115733
vn 0.9999330 -0.0000000 0.0115733
vn 0.9874406 -0.0000000 0.1579905
vn 0.9874406 -0.0000000 0.1579905
vn 0.9874406 -0.0000000 0.1579905
vn 0.9874406 -0.0000000 0.1579905
vn -0.9874406 -0.0000000 0.1579905
vn -0.9874406 -0.0000000 0.1579905
vn -0.9874406 -0.0000000 0.1579905
vn -0.9874406 -0.0000000 0.1579905
vn -0.9999330 -0.0000000 0.0115733
vn -0.9999330 -0.0000000 0.0115733
vn -0.9999330 -0.0000000 0.0115733
vn -0.9999330 -0.0000000 0.0115733
vn 0.0000000 -1.0000000 0.0000000
vn 0.0000000 -1.0000000 0.0000000
vn 0.0000000 -1.0000000 0.0000000
vn 0.0000000 -1.0000000 0.0000000
vn 0.0000000 -1.0000000 0.0000000
vn -0.0000000 1.0000000 -0.0000000
vn -0.0000000 1.0000000 -0.0000000
vn -0.0000000 1.0000000 -0.0000000
vn -0.0000000 1.0000000 -0.0000000
vn -0.0000000 1.0000000 -0.0000000
vn -0.0000000 -0.0000000 -1.0000000
vn -0.0000000 -0.0000000 -1.0000000
vn -0.0000000 -0.0000000 -1.0000000
vn -0.0000000 -0.0000000 -1.0000000
vn 0.9999152 -0.0000000 0.0130197
vn 0.9999152 -0.0000000 0.0130197
vn 0.9999152 -0.0000000 0.0130197
vn 0.9999152 -0.0000000 0.0130197
vn 0.9874406 -0.0000000 0.1579905
vn 0.9874406 -0.0000000 0.1579905
vn 0.9874406 -0.0000000 0.1579905
vn 0.9874406 -0.0000000 0.1579905
vn -0.9874406 -0.0000000 0.1579905
vn -0.9874406 -0.0000000 0.1579905
vn -0.9874406 -0.0000000 0.1579905
vn -0.9874406 -0.0000000 0.1579905
vn -0.9999152 -0.0000000 0.0130197
vn -0.9999152 -0.0000000 0.0130197
vn -0.9999152 -0.0000000 0.0130197
vn -0.9999152 -0.0000000 0.0130197
vn 0.0000000 -1.0000000 0.0000000
vn 0.0000000 -1.0000000 0.0000000
vn 0.0000000 -1.0000000 0.0000000
vn 0.0000000 -1.0000000 0.0000000
vn 0.0000000 -1.0000000 0.0000000
vn -0.0000000 1.0000000 -0.0000000
vn -0.0000000 1.0000000 -0.0000000
vn -0.0000000 1.0000000 -0.0000000
vn -0.0000000 1.0000000 -0.0000000
vn -0.0000000 1.0000000 -0.0000000
vn -0.0000000 -0.0000000 -1.0000000
vn -0.0000000 -0.0000000 -1.0000000
vn -0.0000000 -0.0000000 -1.0000000
vn -0.0000000 -0.0000000 -1.0000000
vn 0.9998893 -0.0000000 0.0148793
vn 0.9998893 -0.0000000 0.0148793
vn 0.9998893 -0.0000000 0.0148793
vn 0.9998893 -0.0000000 0.0148793
vn 0.9874406 -0.0000000 0.1579905
vn 0.9874406 -0.0000000 0.1579905
vn 0.9874406 -0.0000000 0.1579905
vn 0.9874406 -0.0000000 0.1579905
vn -0.9874406 -0.0000000 0.1579905
vn -0.9874406 -0.0000000 0.1579905
vn -0.9874406 -0.0000000 0.1579905
vn -0.9874406 -0.0000000 0.1579905
vn -0.9998893 -0.0000000 0.0148793
vn -0.9998893 -0.0000000 0.0148793
vn -0.9998893 -0.0000000 0.0148793
vn -0.9998893 -0.0000000 0.0148793
vn 0.0000000 0.0000000 -1.0000000
vn 0.0000000 0.0000000 -1.0000000
vn 0.0000000 0.0000000 -1.0000000
vn 0.0000000 0.0000000 -1.0000000
vn 0.0000000 0.0000000 1.0000000
vn 0.0000000 0.0000000 1.0000000
vn 0.0000000 0.0000000 1.0000000
vn 0.0000000 0.0000000 1.0000000
vn 0.0000000 -1.0000000 0.0000000
vn 0.0000000 -1.0000000 0.0000000
vn 0.0000000 -1.0000000 0.0000000
vn 0.0000000 -1.0000000 0.0000000
vn 1.0000000 0.0000000 0.0000000
vn 1.0000000 0.0000000 0.0000000
vn 1.0000000 0.0000000 0.0000000
vn 1.0000000 0.0000000 0.0000000
vn 0.0000000 1.0000000 0.0000000
vn 0.0000000 1.0000000 0.0000000
vn 0.0000000 1.0000000 0.0000000
vn 0.0000000 1.0000000 0.0000000
vn -1.0000000 0.0000000 0.0000000
vn -1.0000000 0.0000000 0.0000000
vn -1.0000000 0.0000000 0.0000000
vn -1.0000000 0.0000000 0.0000000
s off
usemtl GraveBasalt
f 1/1/1 2/2/2 3/3/3
f 1/1/1 3/3/3 4/4/4
f 5/5/5 6/6/6 7/7/7
f 5/5/5 7/7/7 8/8/8
f 9/9/9 10/10/10 11/11/11
f 9/9/9 11/11/11 12/12/12
f 13/13/13 14/14/14 15/15/15
f 13/13/13 15/15/15 16/16/16
f 17/17/17 18/18/18 19/19/19
f 17/17/17 19/19/19 20/20/20
f 21/21/21 22/22/22 23/23/23
f 21/21/21 23/23/23 24/24/24
usemtl OssuaryLimestone
f 25/25/25 26/26/26 27/27/27
f 25/25/25 27/27/27 28/28/28
f 29/29/29 30/30/30 31/31/31
f 29/29/29 31/31/31 32/32/32
f 33/33/33 34/34/34 35/35/35
f 33/33/33 35/35/35 36/36/36
f 37/37/37 38/38/38 39/39/39
f 37/37/37 39/39/39 40/40/40
f 41/41/41 42/42/42 43/43/43
f 41/41/41 43/43/43 44/44/44
f 45/45/45 46/46/46 47/47/47
f 45/45/45 47/47/47 48/48/48
f 121/121/121 122/122/122 123/123/123
f 121/121/121 123/123/123 124/124/124
f 125/125/125 126/126/126 127/127/127
f 125/125/125 127/127/127 128/128/128
f 129/129/129 130/130/130 131/131/131
f 129/129/129 131/131/131 132/132/132
f 133/133/133 134/134/134 135/135/135
f 133/133/133 135/135/135 136/136/136
f 137/137/137 138/138/138 139/139/139
f 137/137/137 139/139/139 140/140/140
f 141/141/141 142/142/142 143/143/143
f 141/141/141 143/143/143 144/144/144
f 169/169/169 170/170/170 171/171/171
f 169/169/169 171/171/171 172/172/172
f 173/173/173 174/174/174 175/175/175
f 173/173/173 175/175/175 176/176/176
f 177/177/177 178/178/178 179/179/179
f 177/177/177 179/179/179 180/180/180
f 181/181/181 182/182/182 183/183/183
f 181/181/181 183/183/183 184/184/184
f 185/185/185 186/186/186 187/187/187
f 185/185/185 187/187/187 188/188/188
f 189/189/189 190/190/190 191/191/191
f 189/189/189 191/191/191 192/192/192
f 217/217/217 218/218/218 219/219/219
f 217/217/217 219/219/219 220/220/220
f 217/217/217 220/220/220 221/221/221
f 222/222/222 223/223/223 224/224/224
f 222/222/222 224/224/224 225/225/225
f 222/222/222 225/225/225 226/226/226
f 227/227/227 228/228/228 229/229/229
f 227/227/227 229/229/229 230/230/230
f 231/231/231 232/232/232 233/233/233
f 231/231/231 233/233/233 234/234/234
f 235/235/235 236/236/236 237/237/237
f 235/235/235 237/237/237 238/238/238
f 239/239/239 240/240/240 241/241/241
f 239/239/239 241/241/241 242/242/242
f 243/243/243 244/244/244 245/245/245
f 243/243/243 245/245/245 246/246/246
f 247/247/247 248/248/248 249/249/249
f 247/247/247 249/249/249 250/250/250
f 247/247/247 250/250/250 251/251/251
f 252/252/252 253/253/253 254/254/254
f 252/252/252 254/254/254 255/255/255
f 252/252/252 255/255/255 256/256/256
f 257/257/257 258/258/258 259/259/259
f 257/257/257 259/259/259 260/260/260
f 261/261/261 262/262/262 263/263/263
f 261/261/261 263/263/263 264/264/264
f 265/265/265 266/266/266 267/267/267
f 265/265/265 267/267/267 268/268/268
f 269/269/269 270/270/270 271/271/271
f 269/269/269 271/271/271 272/272/272
f 273/273/273 274/274/274 275/275/275
f 273/273/273 275/275/275 276/276/276
f 277/277/277 278/278/278 279/279/279
f 277/277/277 279/279/279 280/280/280
f 277/277/277 280/280/280 281/281/281
f 282/282/282 283/283/283 284/284/284
f 282/282/282 284/284/284 285/285/285
f 282/282/282 285/285/285 286/286/286
f 287/287/287 288/288/288 289/289/289
f 287/287/287 289/289/289 290/290/290
f 291/291/291 292/292/292 293/293/293
f 291/291/291 293/293/293 294/294/294
f 295/295/295 296/296/296 297/297/297
f 295/295/295 297/297/297 298/298/298
f 299/299/299 300/300/300 301/301/301
f 299/299/299 301/301/301 302/302/302
f 303/303/303 304/304/304 305/305/305
f 303/303/303 305/305/305 306/306/306
f 307/307/307 308/308/308 309/309/309
f 307/307/307 309/309/309 310/310/310
f 307/307/307 310/310/310 311/311/311
f 312/312/312 313/313/313 314/314/314
f 312/312/312 314/314/314 315/315/315
f 312/312/312 315/315/315 316/316/316
f 317/317/317 318/318/318 319/319/319
f 317/317/317 319/319/319 320/320/320
f 321/321/321 322/322/322 323/323/323
f 321/321/321 323/323/323 324/324/324
f 325/325/325 326/326/326 327/327/327
f 325/325/325 327/327/327 328/328/328
f 329/329/329 330/330/330 331/331/331
f 329/329/329 331/331/331 332/332/332
f 333/333/333 334/334/334 335/335/335
f 333/333/333 335/335/335 336/336/336
f 337/337/337 338/338/338 339/339/339
f 337/337/337 339/339/339 340/340/340
f 337/337/337 340/340/340 341/341/341
f 342/342/342 343/343/343 344/344/344
f 342/342/342 344/344/344 345/345/345
f 342/342/342 345/345/345 346/346/346
f 347/347/347 348/348/348 349/349/349
f 347/347/347 349/349/349 350/350/350
f 351/351/351 352/352/352 353/353/353
f 351/351/351 353/353/353 354/354/354
f 355/355/355 356/356/356 357/357/357
f 355/355/355 357/357/357 358/358/358
f 359/359/359 360/360/360 361/361/361
f 359/359/359 361/361/361 362/362/362
f 363/363/363 364/364/364 365/365/365
f 363/363/363 365/365/365 366/366/366
f 367/367/367 368/368/368 369/369/369
f 367/367/367 369/369/369 370/370/370
f 367/367/367 370/370/370 371/371/371
f 372/372/372 373/373/373 374/374/374
f 372/372/372 374/374/374 375/375/375
f 372/372/372 375/375/375 376/376/376
f 377/377/377 378/378/378 379/379/379
f 377/377/377 379/379/379 380/380/380
f 381/381/381 382/382/382 383/383/383
f 381/381/381 383/383/383 384/384/384
f 385/385/385 386/386/386 387/387/387
f 385/385/385 387/387/387 388/388/388
f 389/389/389 390/390/390 391/391/391
f 389/389/389 391/391/391 392/392/392
f 393/393/393 394/394/394 395/395/395
f 393/393/393 395/395/395 396/396/396
f 397/397/397 398/398/398 399/399/399
f 397/397/397 399/399/399 400/400/400
f 397/397/397 400/400/400 401/401/401
f 402/402/402 403/403/403 404/404/404
f 402/402/402 404/404/404 405/405/405
f 402/402/402 405/405/405 406/406/406
f 407/407/407 408/408/408 409/409/409
f 407/407/407 409/409/409 410/410/410
f 411/411/411 412/412/412 413/413/413
f 411/411/411 413/413/413 414/414/414
f 415/415/415 416/416/416 417/417/417
f 415/415/415 417/417/417 418/418/418
f 419/419/419 420/420/420 421/421/421
f 419/419/419 421/421/421 422/422/422
f 423/423/423 424/424/424 425/425/425
f 423/423/423 425/425/425 426/426/426
usemtl BlackIron
f 49/49/49 50/50/50 51/51/51
f 49/49/49 51/51/51 52/52/52
f 53/53/53 54/54/54 55/55/55
f 53/53/53 55/55/55 56/56/56
f 57/57/57 58/58/58 59/59/59
f 57/57/57 59/59/59 60/60/60
f 61/61/61 62/62/62 63/63/63
f 61/61/61 63/63/63 64/64/64
f 65/65/65 66/66/66 67/67/67
f 65/65/65 67/67/67 68/68/68
f 69/69/69 70/70/70 71/71/71
f 69/69/69 71/71/71 72/72/72
f 97/97/97 98/98/98 99/99/99
f 97/97/97 99/99/99 100/100/100
f 101/101/101 102/102/102 103/103/103
f 101/101/101 103/103/103 104/104/104
f 105/105/105 106/106/106 107/107/107
f 105/105/105 107/107/107 108/108/108
f 109/109/109 110/110/110 111/111/111
f 109/109/109 111/111/111 112/112/112
f 113/113/113 114/114/114 115/115/115
f 113/113/113 115/115/115 116/116/116
f 117/117/117 118/118/118 119/119/119
f 117/117/117 119/119/119 120/120/120
f 145/145/145 146/146/146 147/147/147
f 145/145/145 147/147/147 148/148/148
f 149/149/149 150/150/150 151/151/151
f 149/149/149 151/151/151 152/152/152
f 153/153/153 154/154/154 155/155/155
f 153/153/153 155/155/155 156/156/156
f 157/157/157 158/158/158 159/159/159
f 157/157/157 159/159/159 160/160/160
f 161/161/161 162/162/162 163/163/163
f 161/161/161 163/163/163 164/164/164
f 165/165/165 166/166/166 167/167/167
f 165/165/165 167/167/167 168/168/168
f 193/193/193 194/194/194 195/195/195
f 193/193/193 195/195/195 196/196/196
f 197/197/197 198/198/198 199/199/199
f 197/197/197 199/199/199 200/200/200
f 201/201/201 202/202/202 203/203/203
f 201/201/201 203/203/203 204/204/204
f 205/205/205 206/206/206 207/207/207
f 205/205/205 207/207/207 208/208/208
f 209/209/209 210/210/210 211/211/211
f 209/209/209 211/211/211 212/212/212
f 213/213/213 214/214/214 215/215/215
f 213/213/213 215/215/215 216/216/216
usemtl LedgerCopper
f 73/73/73 74/74/74 75/75/75
f 73/73/73 75/75/75 76/76/76
f 77/77/77 78/78/78 79/79/79
f 77/77/77 79/79/79 80/80/80
f 81/81/81 82/82/82 83/83/83
f 81/81/81 83/83/83 84/84/84
f 85/85/85 86/86/86 87/87/87
f 85/85/85 87/87/87 88/88/88
f 89/89/89 90/90/90 91/91/91
f 89/89/89 91/91/91 92/92/92
f 93/93/93 94/94/94 95/95/95
f 93/93/93 95/95/95 96/96/96
usemtl TreasuryJade
f 427/427/427 428/428/428 429/429/429
f 427/427/427 429/429/429 430/430/430
f 431/431/431 432/432/432 433/433/433
f 431/431/431 433/433/433 434/434/434
f 435/435/435 436/436/436 437/437/437
f 435/435/435 437/437/437 438/438/438
f 439/439/439 440/440/440 441/441/441
f 439/439/439 441/441/441 442/442/442
f 443/443/443 444/444/444 445/445/445
f 443/443/443 445/445/445 446/446/446
f 447/447/447 448/448/448 449/449/449
f 447/447/447 449/449/449 450/450/450
