# AEONFALL original source. Coordinates: centimeters, X east / Y north / Z up.
# GLB alternative uses glTF meter units. Do not multiply this OBJ by 100.
mtllib SM_AEON_GateSpire_14m.mtl
o SM_AEON_GateSpire_14m
v -200.000000 -200.000000 0.000000
v -200.000000 200.000000 0.000000
v 200.000000 200.000000 0.000000
v 200.000000 -200.000000 0.000000
v -200.000000 -200.000000 80.000000
v 200.000000 -200.000000 80.000000
v 200.000000 200.000000 80.000000
v -200.000000 200.000000 80.000000
v -200.000000 -200.000000 0.000000
v 200.000000 -200.000000 0.000000
v 200.000000 -200.000000 80.000000
v -200.000000 -200.000000 80.000000
v 200.000000 -200.000000 0.000000
v 200.000000 200.000000 0.000000
v 200.000000 200.000000 80.000000
v 200.000000 -200.000000 80.000000
v 200.000000 200.000000 0.000000
v -200.000000 200.000000 0.000000
v -200.000000 200.000000 80.000000
v 200.000000 200.000000 80.000000
v -200.000000 200.000000 0.000000
v -200.000000 -200.000000 0.000000
v -200.000000 -200.000000 80.000000
v -200.000000 200.000000 80.000000
v -140.000000 -140.000000 80.000000
v -140.000000 140.000000 80.000000
v 140.000000 140.000000 80.000000
v 140.000000 -140.000000 80.000000
v -140.000000 -140.000000 680.000000
v 140.000000 -140.000000 680.000000
v 140.000000 140.000000 680.000000
v -140.000000 140.000000 680.000000
v -140.000000 -140.000000 80.000000
v 140.000000 -140.000000 80.000000
v 140.000000 -140.000000 680.000000
v -140.000000 -140.000000 680.000000
v 140.000000 -140.000000 80.000000
v 140.000000 140.000000 80.000000
v 140.000000 140.000000 680.000000
v 140.000000 -140.000000 680.000000
v 140.000000 140.000000 80.000000
v -140.000000 140.000000 80.000000
v -140.000000 140.000000 680.000000
v 140.000000 140.000000 680.000000
v -140.000000 140.000000 80.000000
v -140.000000 -140.000000 80.000000
v -140.000000 -140.000000 680.000000
v -140.000000 140.000000 680.000000
v -165.000000 -165.000000 675.000000
v -165.000000 165.000000 675.000000
v 165.000000 165.000000 675.000000
v 165.000000 -165.000000 675.000000
v -165.000000 -165.000000 725.000000
v 165.000000 -165.000000 725.000000
v 165.000000 165.000000 725.000000
v -165.000000 165.000000 725.000000
v -165.000000 -165.000000 675.000000
v 165.000000 -165.000000 675.000000
v 165.000000 -165.000000 725.000000
v -165.000000 -165.000000 725.000000
v 165.000000 -165.000000 675.000000
v 165.000000 165.000000 675.000000
v 165.000000 165.000000 725.000000
v 165.000000 -165.000000 725.000000
v 165.000000 165.000000 675.000000
v -165.000000 165.000000 675.000000
v -165.000000 165.000000 725.000000
v 165.000000 165.000000 725.000000
v -165.000000 165.000000 675.000000
v -165.000000 -165.000000 675.000000
v -165.000000 -165.000000 725.000000
v -165.000000 165.000000 725.000000
v 59.315932 -143.201328 725.000000
v -143.201328 -59.315932 725.000000
v -59.315932 143.201328 725.000000
v 143.201328 59.315932 725.000000
v 69.290965 28.701257 1100.000000
v -28.701257 69.290965 1100.000000
v -69.290965 -28.701257 1100.000000
v 28.701257 -69.290965 1100.000000
v 143.201328 59.315932 725.000000
v -59.315932 143.201328 725.000000
v -28.701257 69.290965 1100.000000
v 69.290965 28.701257 1100.000000
v -59.315932 143.201328 725.000000
v -143.201328 -59.315932 725.000000
v -69.290965 -28.701257 1100.000000
v -28.701257 69.290965 1100.000000
v -143.201328 -59.315932 725.000000
v 59.315932 -143.201328 725.000000
v 28.701257 -69.290965 1100.000000
v -69.290965 -28.701257 1100.000000
v 59.315932 -143.201328 725.000000
v 143.201328 59.315932 725.000000
v 69.290965 28.701257 1100.000000
v 28.701257 -69.290965 1100.000000
v 34.441509 -83.149158 1100.000000
v -83.149158 -34.441509 1100.000000
v -34.441509 83.149158 1100.000000
v 83.149158 34.441509 1100.000000
v 5.543277 2.296101 1400.000000
v -2.296101 5.543277 1400.000000
v -5.543277 -2.296101 1400.000000
v 2.296101 -5.543277 1400.000000
v 83.149158 34.441509 1100.000000
v -34.441509 83.149158 1100.000000
v -2.296101 5.543277 1400.000000
v 5.543277 2.296101 1400.000000
v -34.441509 83.149158 1100.000000
v -83.149158 -34.441509 1100.000000
v -5.543277 -2.296101 1400.000000
v -2.296101 5.543277 1400.000000
v -83.149158 -34.441509 1100.000000
v 34.441509 -83.149158 1100.000000
v 2.296101 -5.543277 1400.000000
v -5.543277 -2.296101 1400.000000
v 34.441509 -83.149158 1100.000000
v 83.149158 34.441509 1100.000000
v 5.543277 2.296101 1400.000000
v 2.296101 -5.543277 1400.000000
vt -2.000000 -2.000000
vt -2.000000 2.000000
vt 2.000000 2.000000
vt 2.000000 -2.000000
vt -2.000000 -2.000000
vt 2.000000 -2.000000
vt 2.000000 2.000000
vt -2.000000 2.000000
vt -2.000000 0.000000
vt 2.000000 0.000000
vt 2.000000 0.800000
vt -2.000000 0.800000
vt -2.000000 0.000000
vt 2.000000 0.000000
vt 2.000000 0.800000
vt -2.000000 0.800000
vt 2.000000 0.000000
vt -2.000000 0.000000
vt -2.000000 0.800000
vt 2.000000 0.800000
vt 2.000000 0.000000
vt -2.000000 0.000000
vt -2.000000 0.800000
vt 2.000000 0.800000
vt -1.400000 -1.400000
vt -1.400000 1.400000
vt 1.400000 1.400000
vt 1.400000 -1.400000
vt -1.400000 -1.400000
vt 1.400000 -1.400000
vt 1.400000 1.400000
vt -1.400000 1.400000
vt -1.400000 0.800000
vt 1.400000 0.800000
vt 1.400000 6.800000
vt -1.400000 6.800000
vt -1.400000 0.800000
vt 1.400000 0.800000
vt 1.400000 6.800000
vt -1.400000 6.800000
vt 1.400000 0.800000
vt -1.400000 0.800000
vt -1.400000 6.800000
vt 1.400000 6.800000
vt 1.400000 0.800000
vt -1.400000 0.800000
vt -1.400000 6.800000
vt 1.400000 6.800000
vt -1.650000 -1.650000
vt -1.650000 1.650000
vt 1.650000 1.650000
vt 1.650000 -1.650000
vt -1.650000 -1.650000
vt 1.650000 -1.650000
vt 1.650000 1.650000
vt -1.650000 1.650000
vt -1.650000 6.750000
vt 1.650000 6.750000
vt 1.650000 7.250000
vt -1.650000 7.250000
vt -1.650000 6.750000
vt 1.650000 6.750000
vt 1.650000 7.250000
vt -1.650000 7.250000
vt 1.650000 6.750000
vt -1.650000 6.750000
vt -1.650000 7.250000
vt 1.650000 7.250000
vt 1.650000 6.750000
vt -1.650000 6.750000
vt -1.650000 7.250000
vt 1.650000 7.250000
vt 0.593159 -1.432013
vt -1.432013 -0.593159
vt -0.593159 1.432013
vt 1.432013 0.593159
vt 0.692910 0.287013
vt -0.287013 0.692910
vt -0.692910 -0.287013
vt 0.287013 -0.692910
vt 1.432013 7.250000
vt -0.593159 7.250000
vt -0.287013 11.000000
vt 0.692910 11.000000
vt 1.432013 7.250000
vt -0.593159 7.250000
vt -0.287013 11.000000
vt 0.692910 11.000000
vt -1.432013 7.250000
vt 0.593159 7.250000
vt 0.287013 11.000000
vt -0.692910 11.000000
vt -1.432013 7.250000
vt 0.593159 7.250000
vt 0.287013 11.000000
vt -0.692910 11.000000
vt 0.344415 -0.831492
vt -0.831492 -0.344415
vt -0.344415 0.831492
vt 0.831492 0.344415
vt 0.055433 0.022961
vt -0.022961 0.055433
vt -0.055433 -0.022961
vt 0.022961 -0.055433
vt 0.831492 11.000000
vt -0.344415 11.000000
vt -0.022961 14.000000
vt 0.055433 14.000000
vt 0.831492 11.000000
vt -0.344415 11.000000
vt -0.022961 14.000000
vt 0.055433 14.000000
vt -0.831492 11.000000
vt 0.344415 11.000000
vt 0.022961 14.000000
vt -0.055433 14.000000
vt -0.831492 11.000000
vt 0.344415 11.000000
vt 0.022961 14.000000
vt -0.055433 14.000000
vn 0.0000000 0.0000000 -1.0000000
vn 0.0000000 0.0000000 -1.0000000
vn 0.0000000 0.0000000 -1.0000000
vn 0.0000000 0.0000000 -1.0000000
vn 0.0000000 0.0000000 1.0000000
vn 0.0000000 0.0000000 1.0000000
vn 0.0000000 0.0000000 1.0000000
vn 0.0000000 0.0000000 1.0000000
vn 0.0000000 -1.0000000 0.0000000
vn 0.0000000 -1.0000000 0.0000000
vn 0.0000000 -1.0000000 0.0000000
vn 0.0000000 -1.0000000 0.0000000
vn 1.0000000 0.0000000 0.0000000
vn 1.0000000 0.0000000 0.0000000
vn 1.0000000 0.0000000 0.0000000
vn 1.0000000 0.0000000 0.0000000
vn 0.0000000 1.0000000 0.0000000
vn 0.0000000 1.0000000 0.0000000
vn 0.0000000 1.0000000 0.0000000
vn 0.0000000 1.0000000 0.0000000
vn -1.0000000 0.0000000 0.0000000
vn -1.0000000 0.0000000 0.0000000
vn -1.0000000 0.0000000 0.0000000
vn -1.0000000 0.0000000 0.0000000
vn 0.0000000 0.0000000 -1.0000000
vn 0.0000000 0.0000000 -1.0000000
vn 0.0000000 0.0000000 -1.0000000
vn 0.0000000 0.0000000 -1.0000000
vn 0.0000000 0.0000000 1.0000000
vn 0.0000000 0.0000000 1.0000000
vn 0.0000000 0.0000000 1.0000000
vn 0.0000000 0.0000000 1.0000000
vn 0.0000000 -1.0000000 0.0000000
vn 0.0000000 -1.0000000 0.0000000
vn 0.0000000 -1.0000000 0.0000000
vn 0.0000000 -1.0000000 0.0000000
vn 1.0000000 0.0000000 0.0000000
vn 1.0000000 0.0000000 0.0000000
vn 1.0000000 0.0000000 0.0000000
vn 1.0000000 0.0000000 0.0000000
vn 0.0000000 1.0000000 0.0000000
vn 0.0000000 1.0000000 0.0000000
vn 0.0000000 1.0000000 0.0000000
vn 0.0000000 1.0000000 0.0000000
vn -1.0000000 0.0000000 0.0000000
vn -1.0000000 0.0000000 0.0000000
vn -1.0000000 0.0000000 0.0000000
vn -1.0000000 0.0000000 0.0000000
vn 0.0000000 0.0000000 -1.0000000
vn 0.0000000 0.0000000 -1.0000000
vn 0.0000000 0.0000000 -1.0000000
vn 0.0000000 0.0000000 -1.0000000
vn 0.0000000 0.0000000 1.0000000
vn 0.0000000 0.0000000 1.0000000
vn 0.0000000 0.0000000 1.0000000
vn 0.0000000 0.0000000 1.0000000
vn 0.0000000 -1.0000000 0.0000000
vn 0.0000000 -1.0000000 0.0000000
vn 0.0000000 -1.0000000 0.0000000
vn 0.0000000 -1.0000000 0.0000000
vn 1.0000000 0.0000000 0.0000000
vn 1.0000000 0.0000000 0.0000000
vn 1.0000000 0.0000000 0.0000000
vn 1.0000000 0.0000000 0.0000000
vn 0.0000000 1.0000000 0.0000000
vn 0.0000000 1.0000000 0.0000000
vn 0.0000000 1.0000000 0.0000000
vn 0.0000000 1.0000000 0.0000000
vn -1.0000000 0.0000000 0.0000000
vn -1.0000000 0.0000000 0.0000000
vn -1.0000000 0.0000000 0.0000000
vn -1.0000000 0.0000000 0.0000000
vn 0.0000000 0.0000000 -1.0000000
vn 0.0000000 0.0000000 -1.0000000
vn 0.0000000 0.0000000 -1.0000000
vn 0.0000000 0.0000000 -1.0000000
vn 0.0000000 0.0000000 1.0000000
vn 0.0000000 0.0000000 1.0000000
vn 0.0000000 0.0000000 1.0000000
vn 0.0000000 0.0000000 1.0000000
vn 0.3784023 0.9135439 0.1491619
vn 0.3784023 0.9135439 0.1491619
vn 0.3784023 0.9135439 0.1491619
vn 0.3784023 0.9135439 0.1491619
vn -0.9135439 0.3784023 0.1491619
vn -0.9135439 0.3784023 0.1491619
vn -0.9135439 0.3784023 0.1491619
vn -0.9135439 0.3784023 0.1491619
vn -0.3784023 -0.9135439 0.1491619
vn -0.3784023 -0.9135439 0.1491619
vn -0.3784023 -0.9135439 0.1491619
vn -0.3784023 -0.9135439 0.1491619
vn 0.9135439 -0.3784023 0.1491619
vn 0.9135439 -0.3784023 0.1491619
vn 0.9135439 -0.3784023 0.1491619
vn 0.9135439 -0.3784023 0.1491619
vn 0.0000000 0.0000000 -1.0000000
vn 0.0000000 0.0000000 -1.0000000
vn 0.0000000 0.0000000 -1.0000000
vn 0.0000000 0.0000000 -1.0000000
vn 0.0000000 0.0000000 1.0000000
vn 0.0000000 0.0000000 1.0000000
vn 0.0000000 0.0000000 1.0000000
vn 0.0000000 0.0000000 1.0000000
vn 0.3753964 0.9062871 0.1942198
vn 0.3753964 0.9062871 0.1942198
vn 0.3753964 0.9062871 0.1942198
vn 0.3753964 0.9062871 0.1942198
vn -0.9062871 0.3753964 0.1942198
vn -0.9062871 0.3753964 0.1942198
vn -0.9062871 0.3753964 0.1942198
vn -0.9062871 0.3753964 0.1942198
vn -0.3753964 -0.9062871 0.1942198
vn -0.3753964 -0.9062871 0.1942198
vn -0.3753964 -0.9062871 0.1942198
vn -0.3753964 -0.9062871 0.1942198
vn 0.9062871 -0.3753964 0.1942198
vn 0.9062871 -0.3753964 0.1942198
vn 0.9062871 -0.3753964 0.1942198
vn 0.9062871 -0.3753964 0.1942198
s off
usemtl GraveBasalt
f 25/25/25 26/26/26 27/27/27
f 25/25/25 27/27/27 28/28/28
f 29/29/29 30/30/30 31/31/31
f 29/29/29 31/31/31 32/32/32
f 33/33/33 34/34/34 35/35/35
f 33/33/33 35/35/35 36/36/36
f 37/37/37 38/38/38 39/39/39
f 37/37/37 39/39/39 40/40/40
f 41/41/41 42/42/42 43/43/43
f 41/41/41 43/43/43 44/44/44
f 45/45/45 46/46/46 47/47/47
f 45/45/45 47/47/47 48/48/48
f 73/73/73 74/74/74 75/75/75
f 73/73/73 75/75/75 76/76/76
f 77/77/77 78/78/78 79/79/79
f 77/77/77 79/79/79 80/80/80
f 81/81/81 82/82/82 83/83/83
f 81/81/81 83/83/83 84/84/84
f 85/85/85 86/86/86 87/87/87
f 85/85/85 87/87/87 88/88/88
f 89/89/89 90/90/90 91/91/91
f 89/89/89 91/91/91 92/92/92
f 93/93/93 94/94/94 95/95/95
f 93/93/93 95/95/95 96/96/96
usemtl OssuaryLimestone
f 1/1/1 2/2/2 3/3/3
f 1/1/1 3/3/3 4/4/4
f 5/5/5 6/6/6 7/7/7
f 5/5/5 7/7/7 8/8/8
f 9/9/9 10/10/10 11/11/11
f 9/9/9 11/11/11 12/12/12
f 13/13/13 14/14/14 15/15/15
f 13/13/13 15/15/15 16/16/16
f 17/17/17 18/18/18 19/19/19
f 17/17/17 19/19/19 20/20/20
f 21/21/21 22/22/22 23/23/23
f 21/21/21 23/23/23 24/24/24
f 49/49/49 50/50/50 51/51/51
f 49/49/49 51/51/51 52/52/52
f 53/53/53 54/54/54 55/55/55
f 53/53/53 55/55/55 56/56/56
f 57/57/57 58/58/58 59/59/59
f 57/57/57 59/59/59 60/60/60
f 61/61/61 62/62/62 63/63/63
f 61/61/61 63/63/63 64/64/64
f 65/65/65 66/66/66 67/67/67
f 65/65/65 67/67/67 68/68/68
f 69/69/69 70/70/70 71/71/71
f 69/69/69 71/71/71 72/72/72
f 97/97/97 98/98/98 99/99/99
f 97/97/97 99/99/99 100/100/100
f 101/101/101 102/102/102 103/103/103
f 101/101/101 103/103/103 104/104/104
f 105/105/105 106/106/106 107/107/107
f 105/105/105 107/107/107 108/108/108
f 109/109/109 110/110/110 111/111/111
f 109/109/109 111/111/111 112/112/112
f 113/113/113 114/114/114 115/115/115
f 113/113/113 115/115/115 116/116/116
f 117/117/117 118/118/118 119/119/119
f 117/117/117 119/119/119 120/120/120
