# AEONFALL original source. Coordinates: centimeters, X east / Y north / Z up.
# GLB alternative uses glTF meter units. Do not multiply this OBJ by 100.
mtllib SM_AEON_Ramp_4m_Rise1m.mtl
o SM_AEON_Ramp_4m_Rise1m
v -200.000000 -200.000000 0.000000
v -200.000000 200.000000 0.000000
v 200.000000 200.000000 0.000000
v 200.000000 -200.000000 0.000000
v -200.000000 -200.000000 0.000000
v 200.000000 -200.000000 0.000000
v 200.000000 200.000000 100.000000
v -200.000000 200.000000 100.000000
v -200.000000 -200.000000 0.000000
v -200.000000 200.000000 100.000000
v -200.000000 200.000000 0.000000
v 200.000000 -200.000000 0.000000
v 200.000000 200.000000 0.000000
v 200.000000 200.000000 100.000000
v -200.000000 200.000000 0.000000
v -200.000000 200.000000 100.000000
v 200.000000 200.000000 100.000000
v 200.000000 200.000000 0.000000
vt -2.000000 -2.000000
vt -2.000000 2.000000
vt 2.000000 2.000000
vt 2.000000 -2.000000
vt -2.000000 -2.000000
vt 2.000000 -2.000000
vt 2.000000 2.000000
vt -2.000000 2.000000
vt -2.000000 0.000000
vt 2.000000 1.000000
vt 2.000000 0.000000
vt -2.000000 0.000000
vt 2.000000 0.000000
vt 2.000000 1.000000
vt -2.000000 0.000000
vt -2.000000 1.000000
vt 2.000000 1.000000
vt 2.000000 0.000000
vn 0.0000000 0.0000000 -1.0000000
vn 0.0000000 0.0000000 -1.0000000
vn 0.0000000 0.0000000 -1.0000000
vn 0.0000000 0.0000000 -1.0000000
vn 0.0000000 -0.2425356 0.9701425
vn 0.0000000 -0.2425356 0.9701425
vn 0.0000000 -0.2425356 0.9701425
vn 0.0000000 -0.2425356 0.9701425
vn -1.0000000 0.0000000 0.0000000
vn -1.0000000 0.0000000 0.0000000
vn -1.0000000 0.0000000 0.0000000
vn 1.0000000 0.0000000 0.0000000
vn 1.0000000 0.0000000 0.0000000
vn 1.0000000 0.0000000 0.0000000
vn 0.0000000 1.0000000 0.0000000
vn 0.0000000 1.0000000 0.0000000
vn 0.0000000 1.0000000 0.0000000
vn 0.0000000 1.0000000 0.0000000
s off
usemtl GraveBasalt
f 1/1/1 2/2/2 3/3/3
f 1/1/1 3/3/3 4/4/4
f 5/5/5 6/6/6 7/7/7
f 5/5/5 7/7/7 8/8/8
f 9/9/9 10/10/10 11/11/11
f 12/12/12 13/13/13 14/14/14
f 15/15/15 16/16/16 17/17/17
f 15/15/15 17/17/17 18/18/18
