# AEONFALL original source. Coordinates: centimeters, X east / Y north / Z up.
# GLB alternative uses glTF meter units. Do not multiply this OBJ by 100.
mtllib SM_AEON_RibColumn_6m.mtl
o SM_AEON_RibColumn_6m
v 83.149158 -34.441509 0.000000
v 34.441509 -83.149158 0.000000
v -34.441509 -83.149158 0.000000
v -83.149158 -34.441509 0.000000
v -83.149158 34.441509 0.000000
v -34.441509 83.149158 0.000000
v 34.441509 83.149158 0.000000
v 83.149158 34.441509 0.000000
v 83.149158 34.441509 40.000000
v 34.441509 83.149158 40.000000
v -34.441509 83.149158 40.000000
v -83.149158 34.441509 40.000000
v -83.149158 -34.441509 40.000000
v -34.441509 -83.149158 40.000000
v 34.441509 -83.149158 40.000000
v 83.149158 -34.441509 40.000000
v 83.149158 34.441509 0.000000
v 34.441509 83.149158 0.000000
v 34.441509 83.149158 40.000000
v 83.149158 34.441509 40.000000
v 34.441509 83.149158 0.000000
v -34.441509 83.149158 0.000000
v -34.441509 83.149158 40.000000
v 34.441509 83.149158 40.000000
v -34.441509 83.149158 0.000000
v -83.149158 34.441509 0.000000
v -83.149158 34.441509 40.000000
v -34.441509 83.149158 40.000000
v -83.149158 34.441509 0.000000
v -83.149158 -34.441509 0.000000
v -83.149158 -34.441509 40.000000
v -83.149158 34.441509 40.000000
v -83.149158 -34.441509 0.000000
v -34.441509 -83.149158 0.000000
v -34.441509 -83.149158 40.000000
v -83.149158 -34.441509 40.000000
v -34.441509 -83.149158 0.000000
v 34.441509 -83.149158 0.000000
v 34.441509 -83.149158 40.000000
v -34.441509 -83.149158 40.000000
v 34.441509 -83.149158 0.000000
v 83.149158 -34.441509 0.000000
v 83.149158 -34.441509 40.000000
v 34.441509 -83.149158 40.000000
v 83.149158 -34.441509 0.000000
v 83.149158 34.441509 0.000000
v 83.149158 34.441509 40.000000
v 83.149158 -34.441509 40.000000
v 48.041736 -19.899538 40.000000
v 19.899538 -48.041736 40.000000
v -19.899538 -48.041736 40.000000
v -48.041736 -19.899538 40.000000
v -48.041736 19.899538 40.000000
v -19.899538 48.041736 40.000000
v 19.899538 48.041736 40.000000
v 48.041736 19.899538 40.000000
v 38.802940 16.072704 530.000000
v 16.072704 38.802940 530.000000
v -16.072704 38.802940 530.000000
v -38.802940 16.072704 530.000000
v -38.802940 -16.072704 530.000000
v -16.072704 -38.802940 530.000000
v 16.072704 -38.802940 530.000000
v 38.802940 -16.072704 530.000000
v 48.041736 19.899538 40.000000
v 19.899538 48.041736 40.000000
v 16.072704 38.802940 530.000000
v 38.802940 16.072704 530.000000
v 19.899538 48.041736 40.000000
v -19.899538 48.041736 40.000000
v -16.072704 38.802940 530.000000
v 16.072704 38.802940 530.000000
v -19.899538 48.041736 40.000000
v -48.041736 19.899538 40.000000
v -38.802940 16.072704 530.000000
v -16.072704 38.802940 530.000000
v -48.041736 19.899538 40.000000
v -48.041736 -19.899538 40.000000
v -38.802940 -16.072704 530.000000
v -38.802940 16.072704 530.000000
v -48.041736 -19.899538 40.000000
v -19.899538 -48.041736 40.000000
v -16.072704 -38.802940 530.000000
v -38.802940 -16.072704 530.000000
v -19.899538 -48.041736 40.000000
v 19.899538 -48.041736 40.000000
v 16.072704 -38.802940 530.000000
v -16.072704 -38.802940 530.000000
v 19.899538 -48.041736 40.000000
v 48.041736 -19.899538 40.000000
v 38.802940 -16.072704 530.000000
v 16.072704 -38.802940 530.000000
v 48.041736 -19.899538 40.000000
v 48.041736 19.899538 40.000000
v 38.802940 16.072704 530.000000
v 38.802940 -16.072704 530.000000
v 38.802940 -16.072704 530.000000
v 16.072704 -38.802940 530.000000
v -16.072704 -38.802940 530.000000
v -38.802940 -16.072704 530.000000
v -38.802940 16.072704 530.000000
v -16.072704 38.802940 530.000000
v 16.072704 38.802940 530.000000
v 38.802940 16.072704 530.000000
v 73.910363 30.614675 570.000000
v 30.614675 73.910363 570.000000
v -30.614675 73.910363 570.000000
v -73.910363 30.614675 570.000000
v -73.910363 -30.614675 570.000000
v -30.614675 -73.910363 570.000000
v 30.614675 -73.910363 570.000000
v 73.910363 -30.614675 570.000000
v 38.802940 16.072704 530.000000
v 16.072704 38.802940 530.000000
v 30.614675 73.910363 570.000000
v 73.910363 30.614675 570.000000
v 16.072704 38.802940 530.000000
v -16.072704 38.802940 530.000000
v -30.614675 73.910363 570.000000
v 30.614675 73.910363 570.000000
v -16.072704 38.802940 530.000000
v -38.802940 16.072704 530.000000
v -73.910363 30.614675 570.000000
v -30.614675 73.910363 570.000000
v -38.802940 16.072704 530.000000
v -38.802940 -16.072704 530.000000
v -73.910363 -30.614675 570.000000
v -73.910363 30.614675 570.000000
v -38.802940 -16.072704 530.000000
v -16.072704 -38.802940 530.000000
v -30.614675 -73.910363 570.000000
v -73.910363 -30.614675 570.000000
v -16.072704 -38.802940 530.000000
v 16.072704 -38.802940 530.000000
v 30.614675 -73.910363 570.000000
v -30.614675 -73.910363 570.000000
v 16.072704 -38.802940 530.000000
v 38.802940 -16.072704 530.000000
v 73.910363 -30.614675 570.000000
v 30.614675 -73.910363 570.000000
v 38.802940 -16.072704 530.000000
v 38.802940 16.072704 530.000000
v 73.910363 30.614675 570.000000
v 73.910363 -30.614675 570.000000
v 73.910363 -30.614675 570.000000
v 30.614675 -73.910363 570.000000
v -30.614675 -73.910363 570.000000
v -73.910363 -30.614675 570.000000
v -73.910363 30.614675 570.000000
v -30.614675 73.910363 570.000000
v 30.614675 73.910363 570.000000
v 73.910363 30.614675 570.000000
v 73.910363 30.614675 600.000000
v 30.614675 73.910363 600.000000
v -30.614675 73.910363 600.000000
v -73.910363 30.614675 600.000000
v -73.910363 -30.614675 600.000000
v -30.614675 -73.910363 600.000000
v 30.614675 -73.910363 600.000000
v 73.910363 -30.614675 600.000000
v 73.910363 30.614675 570.000000
v 30.614675 73.910363 570.000000
v 30.614675 73.910363 600.000000
v 73.910363 30.614675 600.000000
v 30.614675 73.910363 570.000000
v -30.614675 73.910363 570.000000
v -30.614675 73.910363 600.000000
v 30.614675 73.910363 600.000000
v -30.614675 73.910363 570.000000
v -73.910363 30.614675 570.000000
v -73.910363 30.614675 600.000000
v -30.614675 73.910363 600.000000
v -73.910363 30.614675 570.000000
v -73.910363 -30.614675 570.000000
v -73.910363 -30.614675 600.000000
v -73.910363 30.614675 600.000000
v -73.910363 -30.614675 570.000000
v -30.614675 -73.910363 570.000000
v -30.614675 -73.910363 600.000000
v -73.910363 -30.614675 600.000000
v -30.614675 -73.910363 570.000000
v 30.614675 -73.910363 570.000000
v 30.614675 -73.910363 600.000000
v -30.614675 -73.910363 600.000000
v 30.614675 -73.910363 570.000000
v 73.910363 -30.614675 570.000000
v 73.910363 -30.614675 600.000000
v 30.614675 -73.910363 600.000000
v 73.910363 -30.614675 570.000000
v 73.910363 30.614675 570.000000
v 73.910363 30.614675 600.000000
v 73.910363 -30.614675 600.000000
vt 0.831492 -0.344415
vt 0.344415 -0.831492
vt -0.344415 -0.831492
vt -0.831492 -0.344415
vt -0.831492 0.344415
vt -0.344415 0.831492
vt 0.344415 0.831492
vt 0.831492 0.344415
vt 0.831492 0.344415
vt 0.344415 0.831492
vt -0.344415 0.831492
vt -0.831492 0.344415
vt -0.831492 -0.344415
vt -0.344415 -0.831492
vt 0.344415 -0.831492
vt 0.831492 -0.344415
vt 0.344415 0.000000
vt 0.831492 0.000000
vt 0.831492 0.400000
vt 0.344415 0.400000
vt 0.344415 0.000000
vt -0.344415 0.000000
vt -0.344415 0.400000
vt 0.344415 0.400000
vt -0.344415 0.000000
vt -0.831492 0.000000
vt -0.831492 0.400000
vt -0.344415 0.400000
vt 0.344415 0.000000
vt -0.344415 0.000000
vt -0.344415 0.400000
vt 0.344415 0.400000
vt -0.344415 0.000000
vt -0.831492 0.000000
vt -0.831492 0.400000
vt -0.344415 0.400000
vt -0.344415 0.000000
vt 0.344415 0.000000
vt 0.344415 0.400000
vt -0.344415 0.400000
vt 0.344415 0.000000
vt 0.831492 0.000000
vt 0.831492 0.400000
vt 0.344415 0.400000
vt -0.344415 0.000000
vt 0.344415 0.000000
vt 0.344415 0.400000
vt -0.344415 0.400000
vt 0.480417 -0.198995
vt 0.198995 -0.480417
vt -0.198995 -0.480417
vt -0.480417 -0.198995
vt -0.480417 0.198995
vt -0.198995 0.480417
vt 0.198995 0.480417
vt 0.480417 0.198995
vt 0.388029 0.160727
vt 0.160727 0.388029
vt -0.160727 0.388029
vt -0.388029 0.160727
vt -0.388029 -0.160727
vt -0.160727 -0.388029
vt 0.160727 -0.388029
vt 0.388029 -0.160727
vt 0.198995 0.400000
vt 0.480417 0.400000
vt 0.388029 5.300000
vt 0.160727 5.300000
vt 0.198995 0.400000
vt -0.198995 0.400000
vt -0.160727 5.300000
vt 0.160727 5.300000
vt -0.198995 0.400000
vt -0.480417 0.400000
vt -0.388029 5.300000
vt -0.160727 5.300000
vt 0.198995 0.400000
vt -0.198995 0.400000
vt -0.160727 5.300000
vt 0.160727 5.300000
vt -0.198995 0.400000
vt -0.480417 0.400000
vt -0.388029 5.300000
vt -0.160727 5.300000
vt -0.198995 0.400000
vt 0.198995 0.400000
vt 0.160727 5.300000
vt -0.160727 5.300000
vt 0.198995 0.400000
vt 0.480417 0.400000
vt 0.388029 5.300000
vt 0.160727 5.300000
vt -0.198995 0.400000
vt 0.198995 0.400000
vt 0.160727 5.300000
vt -0.160727 5.300000
vt 0.388029 -0.160727
vt 0.160727 -0.388029
vt -0.160727 -0.388029
vt -0.388029 -0.160727
vt -0.388029 0.160727
vt -0.160727 0.388029
vt 0.160727 0.388029
vt 0.388029 0.160727
vt 0.739104 0.306147
vt 0.306147 0.739104
vt -0.306147 0.739104
vt -0.739104 0.306147
vt -0.739104 -0.306147
vt -0.306147 -0.739104
vt 0.306147 -0.739104
vt 0.739104 -0.306147
vt 0.388029 0.160727
vt 0.160727 0.388029
vt 0.306147 0.739104
vt 0.739104 0.306147
vt 0.160727 5.300000
vt -0.160727 5.300000
vt -0.306147 5.700000
vt 0.306147 5.700000
vt -0.160727 0.388029
vt -0.388029 0.160727
vt -0.739104 0.306147
vt -0.306147 0.739104
vt 0.160727 5.300000
vt -0.160727 5.300000
vt -0.306147 5.700000
vt 0.306147 5.700000
vt -0.388029 -0.160727
vt -0.160727 -0.388029
vt -0.306147 -0.739104
vt -0.739104 -0.306147
vt -0.160727 5.300000
vt 0.160727 5.300000
vt 0.306147 5.700000
vt -0.306147 5.700000
vt 0.160727 -0.388029
vt 0.388029 -0.160727
vt 0.739104 -0.306147
vt 0.306147 -0.739104
vt -0.160727 5.300000
vt 0.160727 5.300000
vt 0.306147 5.700000
vt -0.306147 5.700000
vt 0.739104 -0.306147
vt 0.306147 -0.739104
vt -0.306147 -0.739104
vt -0.739104 -0.306147
vt -0.739104 0.306147
vt -0.306147 0.739104
vt 0.306147 0.739104
vt 0.739104 0.306147
vt 0.739104 0.306147
vt 0.306147 0.739104
vt -0.306147 0.739104
vt -0.739104 0.306147
vt -0.739104 -0.306147
vt -0.306147 -0.739104
vt 0.306147 -0.739104
vt 0.739104 -0.306147
vt 0.306147 5.700000
vt 0.739104 5.700000
vt 0.739104 6.000000
vt 0.306147 6.000000
vt 0.306147 5.700000
vt -0.306147 5.700000
vt -0.306147 6.000000
vt 0.306147 6.000000
vt -0.306147 5.700000
vt -0.739104 5.700000
vt -0.739104 6.000000
vt -0.306147 6.000000
vt 0.306147 5.700000
vt -0.306147 5.700000
vt -0.306147 6.000000
vt 0.306147 6.000000
vt -0.306147 5.700000
vt -0.739104 5.700000
vt -0.739104 6.000000
vt -0.306147 6.000000
vt -0.306147 5.700000
vt 0.306147 5.700000
vt 0.306147 6.000000
vt -0.306147 6.000000
vt 0.306147 5.700000
vt 0.739104 5.700000
vt 0.739104 6.000000
vt 0.306147 6.000000
vt -0.306147 5.700000
vt 0.306147 5.700000
vt 0.306147 6.000000
vt -0.306147 6.000000
vn 0.0000000 0.0000000 -1.0000000
vn 0.0000000 0.0000000 -1.0000000
vn 0.0000000 0.0000000 -1.0000000
vn 0.0000000 0.0000000 -1.0000000
vn 0.0000000 0.0000000 -1.0000000
vn 0.0000000 0.0000000 -1.0000000
vn 0.0000000 0.0000000 -1.0000000
vn 0.0000000 0.0000000 -1.0000000
vn 0.0000000 0.0000000 1.0000000
vn 0.0000000 0.0000000 1.0000000
vn 0.0000000 0.0000000 1.0000000
vn 0.0000000 0.0000000 1.0000000
vn 0.0000000 0.0000000 1.0000000
vn 0.0000000 0.0000000 1.0000000
vn 0.0000000 0.0000000 1.0000000
vn 0.0000000 0.0000000 1.0000000
vn 0.7071068 0.7071068 0.0000000
vn 0.7071068 0.7071068 0.0000000
vn 0.7071068 0.7071068 0.0000000
vn 0.7071068 0.7071068 0.0000000
vn 0.0000000 1.0000000 0.0000000
vn 0.0000000 1.0000000 0.0000000
vn 0.0000000 1.0000000 0.0000000
vn 0.0000000 1.0000000 0.0000000
vn -0.7071068 0.7071068 0.0000000
vn -0.7071068 0.7071068 0.0000000
vn -0.7071068 0.7071068 0.0000000
vn -0.7071068 0.7071068 0.0000000
vn -1.0000000 0.0000000 0.0000000
vn -1.0000000 0.0000000 0.0000000
vn -1.0000000 0.0000000 0.0000000
vn -1.0000000 0.0000000 0.0000000
vn -0.7071068 -0.7071068 0.0000000
vn -0.7071068 -0.7071068 0.0000000
vn -0.7071068 -0.7071068 0.0000000
vn -0.7071068 -0.7071068 0.0000000
vn 0.0000000 -1.0000000 0.0000000
vn 0.0000000 -1.0000000 0.0000000
vn 0.0000000 -1.0000000 0.0000000
vn 0.0000000 -1.0000000 0.0000000
vn 0.7071068 -0.7071068 0.0000000
vn 0.7071068 -0.7071068 0.0000000
vn 0.7071068 -0.7071068 0.0000000
vn 0.7071068 -0.7071068 0.0000000
vn 1.0000000 -0.0000000 0.0000000
vn 1.0000000 -0.0000000 0.0000000
vn 1.0000000 -0.0000000 0.0000000
vn 1.0000000 -0.0000000 0.0000000
vn 0.0000000 0.0000000 -1.0000000
vn 0.0000000 0.0000000 -1.0000000
vn 0.0000000 0.0000000 -1.0000000
vn 0.0000000 0.0000000 -1.0000000
vn 0.0000000 0.0000000 -1.0000000
vn 0.0000000 0.0000000 -1.0000000
vn 0.0000000 0.0000000 -1.0000000
vn 0.0000000 0.0000000 -1.0000000
vn 0.0000000 0.0000000 1.0000000
vn 0.0000000 0.0000000 1.0000000
vn 0.0000000 0.0000000 1.0000000
vn 0.0000000 0.0000000 1.0000000
vn 0.0000000 0.0000000 1.0000000
vn 0.0000000 0.0000000 1.0000000
vn 0.0000000 0.0000000 1.0000000
vn 0.0000000 0.0000000 1.0000000
vn 0.7069811 0.7069811 0.0188513
vn 0.7069811 0.7069811 0.0188513
vn 0.7069811 0.7069811 0.0188513
vn 0.7069811 0.7069811 0.0188513
vn 0.0000000 0.9998223 0.0188513
vn 0.0000000 0.9998223 0.0188513
vn 0.0000000 0.9998223 0.0188513
vn 0.0000000 0.9998223 0.0188513
vn -0.7069811 0.7069811 0.0188513
vn -0.7069811 0.7069811 0.0188513
vn -0.7069811 0.7069811 0.0188513
vn -0.7069811 0.7069811 0.0188513
vn -0.9998223 0.0000000 0.0188513
vn -0.9998223 0.0000000 0.0188513
vn -0.9998223 0.0000000 0.0188513
vn -0.9998223 0.0000000 0.0188513
vn -0.7069811 -0.7069811 0.0188513
vn -0.7069811 -0.7069811 0.0188513
vn -0.7069811 -0.7069811 0.0188513
vn -0.7069811 -0.7069811 0.0188513
vn -0.0000000 -0.9998223 0.0188513
vn -0.0000000 -0.9998223 0.0188513
vn -0.0000000 -0.9998223 0.0188513
vn -0.0000000 -0.9998223 0.0188513
vn 0.7069811 -0.7069811 0.0188513
vn 0.7069811 -0.7069811 0.0188513
vn 0.7069811 -0.7069811 0.0188513
vn 0.7069811 -0.7069811 0.0188513
vn 0.9998223 -0.0000000 0.0188513
vn 0.9998223 -0.0000000 0.0188513
vn 0.9998223 -0.0000000 0.0188513
vn 0.9998223 -0.0000000 0.0188513
vn 0.0000000 0.0000000 -1.0000000
vn 0.0000000 0.0000000 -1.0000000
vn 0.0000000 0.0000000 -1.0000000
vn 0.0000000 0.0000000 -1.0000000
vn 0.0000000 0.0000000 -1.0000000
vn 0.0000000 0.0000000 -1.0000000
vn 0.0000000 0.0000000 -1.0000000
vn 0.0000000 0.0000000 -1.0000000
vn 0.0000000 0.0000000 1.0000000
vn 0.0000000 0.0000000 1.0000000
vn 0.0000000 0.0000000 1.0000000
vn 0.0000000 0.0000000 1.0000000
vn 0.0000000 0.0000000 1.0000000
vn 0.0000000 0.0000000 1.0000000
vn 0.0000000 0.0000000 1.0000000
vn 0.0000000 0.0000000 1.0000000
vn 0.5314442 0.5314442 -0.6596470
vn 0.5314442 0.5314442 -0.6596470
vn 0.5314442 0.5314442 -0.6596470
vn 0.5314442 0.5314442 -0.6596470
vn 0.0000000 0.7515756 -0.6596470
vn 0.0000000 0.7515756 -0.6596470
vn 0.0000000 0.7515756 -0.6596470
vn 0.0000000 0.7515756 -0.6596470
vn -0.5314442 0.5314442 -0.6596470
vn -0.5314442 0.5314442 -0.6596470
vn -0.5314442 0.5314442 -0.6596470
vn -0.5314442 0.5314442 -0.6596470
vn -0.7515756 0.0000000 -0.6596470
vn -0.7515756 0.0000000 -0.6596470
vn -0.7515756 0.0000000 -0.6596470
vn -0.7515756 0.0000000 -0.6596470
vn -0.5314442 -0.5314442 -0.6596470
vn -0.5314442 -0.5314442 -0.6596470
vn -0.5314442 -0.5314442 -0.6596470
vn -0.5314442 -0.5314442 -0.6596470
vn -0.0000000 -0.7515756 -0.6596470
vn -0.0000000 -0.7515756 -0.6596470
vn -0.0000000 -0.7515756 -0.6596470
vn -0.0000000 -0.7515756 -0.6596470
vn 0.5314442 -0.5314442 -0.6596470
vn 0.5314442 -0.5314442 -0.6596470
vn 0.5314442 -0.5314442 -0.6596470
vn 0.5314442 -0.5314442 -0.6596470
vn 0.7515756 -0.0000000 -0.6596470
vn 0.7515756 -0.0000000 -0.6596470
vn 0.7515756 -0.0000000 -0.6596470
vn 0.7515756 -0.0000000 -0.6596470
vn 0.0000000 0.0000000 -1.0000000
vn 0.0000000 0.0000000 -1.0000000
vn 0.0000000 0.0000000 -1.0000000
vn 0.0000000 0.0000000 -1.0000000
vn 0.0000000 0.0000000 -1.0000000
vn 0.0000000 0.0000000 -1.0000000
vn 0.0000000 0.0000000 -1.0000000
vn 0.0000000 0.0000000 -1.0000000
vn 0.0000000 0.0000000 1.0000000
vn 0.0000000 0.0000000 1.0000000
vn 0.0000000 0.0000000 1.0000000
vn 0.0000000 0.0000000 1.0000000
vn 0.0000000 0.0000000 1.0000000
vn 0.0000000 0.0000000 1.0000000
vn 0.0000000 0.0000000 1.0000000
vn 0.0000000 0.0000000 1.0000000
vn 0.7071068 0.7071068 0.0000000
vn 0.7071068 0.7071068 0.0000000
vn 0.7071068 0.7071068 0.0000000
vn 0.7071068 0.7071068 0.0000000
vn 0.0000000 1.0000000 0.0000000
vn 0.0000000 1.0000000 0.0000000
vn 0.0000000 1.0000000 0.0000000
vn 0.0000000 1.0000000 0.0000000
vn -0.7071068 0.7071068 0.0000000
vn -0.7071068 0.7071068 0.0000000
vn -0.7071068 0.7071068 0.0000000
vn -0.7071068 0.7071068 0.0000000
vn -1.0000000 0.0000000 0.0000000
vn -1.0000000 0.0000000 0.0000000
vn -1.0000000 0.0000000 0.0000000
vn -1.0000000 0.0000000 0.0000000
vn -0.7071068 -0.7071068 0.0000000
vn -0.7071068 -0.7071068 0.0000000
vn -0.7071068 -0.7071068 0.0000000
vn -0.7071068 -0.7071068 0.0000000
vn -0.0000000 -1.0000000 0.0000000
vn -0.0000000 -1.0000000 0.0000000
vn -0.0000000 -1.0000000 0.0000000
vn -0.0000000 -1.0000000 0.0000000
vn 0.7071068 -0.7071068 0.0000000
vn 0.7071068 -0.7071068 0.0000000
vn 0.7071068 -0.7071068 0.0000000
vn 0.7071068 -0.7071068 0.0000000
vn 1.0000000 -0.0000000 0.0000000
vn 1.0000000 -0.0000000 0.0000000
vn 1.0000000 -0.0000000 0.0000000
vn 1.0000000 -0.0000000 0.0000000
s off
usemtl OssuaryLimestone
f 1/1/1 2/2/2 3/3/3
f 1/1/1 3/3/3 4/4/4
f 1/1/1 4/4/4 5/5/5
f 1/1/1 5/5/5 6/6/6
f 1/1/1 6/6/6 7/7/7
f 1/1/1 7/7/7 8/8/8
f 9/9/9 10/10/10 11/11/11
f 9/9/9 11/11/11 12/12/12
f 9/9/9 12/12/12 13/13/13
f 9/9/9 13/13/13 14/14/14
f 9/9/9 14/14/14 15/15/15
f 9/9/9 15/15/15 16/16/16
f 17/17/17 18/18/18 19/19/19
f 17/17/17 19/19/19 20/20/20
f 21/21/21 22/22/22 23/23/23
f 21/21/21 23/23/23 24/24/24
f 25/25/25 26/26/26 27/27/27
f 25/25/25 27/27/27 28/28/28
f 29/29/29 30/30/30 31/31/31
f 29/29/29 31/31/31 32/32/32
f 33/33/33 34/34/34 35/35/35
f 33/33/33 35/35/35 36/36/36
f 37/37/37 38/38/38 39/39/39
f 37/37/37 39/39/39 40/40/40
f 41/41/41 42/42/42 43/43/43
f 41/41/41 43/43/43 44/44/44
f 45/45/45 46/46/46 47/47/47
f 45/45/45 47/47/47 48/48/48
f 49/49/49 50/50/50 51/51/51
f 49/49/49 51/51/51 52/52/52
f 49/49/49 52/52/52 53/53/53
f 49/49/49 53/53/53 54/54/54
f 49/49/49 54/54/54 55/55/55
f 49/49/49 55/55/55 56/56/56
f 57/57/57 58/58/58 59/59/59
f 57/57/57 59/59/59 60/60/60
f 57/57/57 60/60/60 61/61/61
f 57/57/57 61/61/61 62/62/62
f 57/57/57 62/62/62 63/63/63
f 57/57/57 63/63/63 64/64/64
f 65/65/65 66/66/66 67/67/67
f 65/65/65 67/67/67 68/68/68
f 69/69/69 70/70/70 71/71/71
f 69/69/69 71/71/71 72/72/72
f 73/73/73 74/74/74 75/75/75
f 73/73/73 75/75/75 76/76/76
f 77/77/77 78/78/78 79/79/79
f 77/77/77 79/79/79 80/80/80
f 81/81/81 82/82/82 83/83/83
f 81/81/81 83/83/83 84/84/84
f 85/85/85 86/86/86 87/87/87
f 85/85/85 87/87/87 88/88/88
f 89/89/89 90/90/90 91/91/91
f 89/89/89 91/91/91 92/92/92
f 93/93/93 94/94/94 95/95/95
f 93/93/93 95/95/95 96/96/96
f 145/145/145 146/146/146 147/147/147
f 145/145/145 147/147/147 148/148/148
f 145/145/145 148/148/148 149/149/149
f 145/145/145 149/149/149 150/150/150
f 145/145/145 150/150/150 151/151/151
f 145/145/145 151/151/151 152/152/152
f 153/153/153 154/154/154 155/155/155
f 153/153/153 155/155/155 156/156/156
f 153/153/153 156/156/156 157/157/157
f 153/153/153 157/157/157 158/158/158
f 153/153/153 158/158/158 159/159/159
f 153/153/153 159/159/159 160/160/160
f 161/161/161 162/162/162 163/163/163
f 161/161/161 163/163/163 164/164/164
f 165/165/165 166/166/166 167/167/167
f 165/165/165 167/167/167 168/168/168
f 169/169/169 170/170/170 171/171/171
f 169/169/169 171/171/171 172/172/172
f 173/173/173 174/174/174 175/175/175
f 173/173/173 175/175/175 176/176/176
f 177/177/177 178/178/178 179/179/179
f 177/177/177 179/179/179 180/180/180
f 181/181/181 182/182/182 183/183/183
f 181/181/181 183/183/183 184/184/184
f 185/185/185 186/186/186 187/187/187
f 185/185/185 187/187/187 188/188/188
f 189/189/189 190/190/190 191/191/191
f 189/189/189 191/191/191 192/192/192
usemtl LedgerCopper
f 97/97/97 98/98/98 99/99/99
f 97/97/97 99/99/99 100/100/100
f 97/97/97 100/100/100 101/101/101
f 97/97/97 101/101/101 102/102/102
f 97/97/97 102/102/102 103/103/103
f 97/97/97 103/103/103 104/104/104
f 105/105/105 106/106/106 107/107/107
f 105/105/105 107/107/107 108/108/108
f 105/105/105 108/108/108 109/109/109
f 105/105/105 109/109/109 110/110/110
f 105/105/105 110/110/110 111/111/111
f 105/105/105 111/111/111 112/112/112
f 113/113/113 114/114/114 115/115/115
f 113/113/113 115/115/115 116/116/116
f 117/117/117 118/118/118 119/119/119
f 117/117/117 119/119/119 120/120/120
f 121/121/121 122/122/122 123/123/123
f 121/121/121 123/123/123 124/124/124
f 125/125/125 126/126/126 127/127/127
f 125/125/125 127/127/127 128/128/128
f 129/129/129 130/130/130 131/131/131
f 129/129/129 131/131/131 132/132/132
f 133/133/133 134/134/134 135/135/135
f 133/133/133 135/135/135 136/136/136
f 137/137/137 138/138/138 139/139/139
f 137/137/137 139/139/139 140/140/140
f 141/141/141 142/142/142 143/143/143
f 141/141/141 143/143/143 144/144/144
